<svg width="919" height="96" viewBox="0 0 919 96" fill="none" xmlns="http://www.w3.org/2000/svg">
<path d="M45.576 29.628C45.576 28.38 45.834 27.27 46.35 26.298C46.878 25.314 47.622 24.552 48.582 24.012C49.542 23.46 50.646 23.184 51.894 23.184C53.478 23.184 54.81 23.61 55.89 24.462C56.97 25.302 57.666 26.448 57.978 27.9H54.18C53.952 27.42 53.634 27.054 53.226 26.802C52.83 26.55 52.368 26.424 51.84 26.424C51.024 26.424 50.37 26.718 49.878 27.306C49.398 27.882 49.158 28.656 49.158 29.628C49.158 30.612 49.398 31.398 49.878 31.986C50.37 32.562 51.024 32.85 51.84 32.85C52.368 32.85 52.83 32.724 53.226 32.472C53.634 32.22 53.952 31.854 54.18 31.374H57.978C57.666 32.826 56.97 33.978 55.89 34.83C54.81 35.67 53.478 36.09 51.894 36.09C50.646 36.09 49.542 35.82 48.582 35.28C47.622 34.728 46.878 33.966 46.35 32.994C45.834 32.01 45.576 30.888 45.576 29.628ZM64.3466 36.126C63.3386 36.126 62.4326 35.916 61.6286 35.496C60.8366 35.076 60.2126 34.476 59.7566 33.696C59.3006 32.916 59.0726 31.998 59.0726 30.942C59.0726 29.898 59.3006 28.986 59.7566 28.206C60.2246 27.426 60.8546 26.826 61.6466 26.406C62.4506 25.986 63.3566 25.776 64.3646 25.776C65.3726 25.776 66.2726 25.986 67.0646 26.406C67.8686 26.826 68.4986 27.426 68.9546 28.206C69.4226 28.986 69.6566 29.898 69.6566 30.942C69.6566 31.986 69.4226 32.904 68.9546 33.696C68.4986 34.476 67.8686 35.076 67.0646 35.496C66.2606 35.916 65.3546 36.126 64.3466 36.126ZM64.3466 33.066C64.8386 33.066 65.2466 32.886 65.5706 32.526C65.9066 32.154 66.0746 31.626 66.0746 30.942C66.0746 30.258 65.9066 29.736 65.5706 29.376C65.2466 29.016 64.8446 28.836 64.3646 28.836C63.8846 28.836 63.4826 29.016 63.1586 29.376C62.8346 29.736 62.6726 30.258 62.6726 30.942C62.6726 31.638 62.8286 32.166 63.1406 32.526C63.4526 32.886 63.8546 33.066 64.3466 33.066ZM77.698 25.812C78.862 25.812 79.786 26.202 80.47 26.982C81.154 27.75 81.496 28.794 81.496 30.114V36H77.968V30.582C77.968 30.006 77.818 29.556 77.518 29.232C77.218 28.896 76.816 28.728 76.312 28.728C75.784 28.728 75.37 28.896 75.07 29.232C74.77 29.556 74.62 30.006 74.62 30.582V36H71.092V25.902H74.62V27.342C74.932 26.886 75.352 26.52 75.88 26.244C76.408 25.956 77.014 25.812 77.698 25.812ZM90.0378 25.812C91.2018 25.812 92.1258 26.202 92.8098 26.982C93.4938 27.75 93.8358 28.794 93.8358 30.114V36H90.3078V30.582C90.3078 30.006 90.1578 29.556 89.8578 29.232C89.5578 28.896 89.1558 28.728 88.6518 28.728C88.1238 28.728 87.7098 28.896 87.4098 29.232C87.1098 29.556 86.9598 30.006 86.9598 30.582V36H83.4318V25.902H86.9598V27.342C87.2718 26.886 87.6918 26.52 88.2198 26.244C88.7478 25.956 89.3538 25.812 90.0378 25.812ZM105.42 30.834C105.42 31.11 105.402 31.386 105.366 31.662H98.6877C98.7237 32.214 98.8737 32.628 99.1377 32.904C99.4137 33.168 99.7617 33.3 100.182 33.3C100.77 33.3 101.19 33.036 101.442 32.508H105.204C105.048 33.204 104.742 33.828 104.286 34.38C103.842 34.92 103.278 35.346 102.594 35.658C101.91 35.97 101.154 36.126 100.326 36.126C99.3297 36.126 98.4417 35.916 97.6617 35.496C96.8937 35.076 96.2877 34.476 95.8437 33.696C95.4117 32.916 95.1957 31.998 95.1957 30.942C95.1957 29.886 95.4117 28.974 95.8437 28.206C96.2757 27.426 96.8757 26.826 97.6437 26.406C98.4237 25.986 99.3177 25.776 100.326 25.776C101.322 25.776 102.204 25.98 102.972 26.388C103.74 26.796 104.34 27.384 104.772 28.152C105.204 28.908 105.42 29.802 105.42 30.834ZM101.82 29.952C101.82 29.52 101.676 29.184 101.388 28.944C101.1 28.692 100.74 28.566 100.308 28.566C99.8757 28.566 99.5217 28.686 99.2457 28.926C98.9697 29.154 98.7897 29.496 98.7057 29.952H101.82ZM106.287 30.942C106.287 29.898 106.503 28.986 106.935 28.206C107.367 27.426 107.967 26.826 108.735 26.406C109.515 25.986 110.403 25.776 111.399 25.776C112.683 25.776 113.763 26.13 114.639 26.838C115.515 27.534 116.079 28.512 116.331 29.772H112.587C112.371 29.112 111.951 28.782 111.327 28.782C110.883 28.782 110.529 28.968 110.265 29.34C110.013 29.7 109.887 30.234 109.887 30.942C109.887 31.65 110.013 32.19 110.265 32.562C110.529 32.934 110.883 33.12 111.327 33.12C111.963 33.12 112.383 32.79 112.587 32.13H116.331C116.079 33.378 115.515 34.356 114.639 35.064C113.763 35.772 112.683 36.126 111.399 36.126C110.403 36.126 109.515 35.916 108.735 35.496C107.967 35.076 107.367 34.476 106.935 33.696C106.503 32.916 106.287 31.998 106.287 30.942ZM123.755 32.994V36H122.225C119.645 36 118.355 34.722 118.355 32.166V28.836H117.113V25.902H118.355V23.454H121.901V25.902H123.737V28.836H121.901V32.22C121.901 32.496 121.961 32.694 122.081 32.814C122.213 32.934 122.429 32.994 122.729 32.994H123.755ZM57.546 50.31L53.082 58.968V63H49.536V58.968L45.072 50.31H49.104L51.336 55.206L53.568 50.31H57.546ZM63.3271 63.126C62.3191 63.126 61.4131 62.916 60.6091 62.496C59.8171 62.076 59.1931 61.476 58.7371 60.696C58.2811 59.916 58.0531 58.998 58.0531 57.942C58.0531 56.898 58.2811 55.986 58.7371 55.206C59.2051 54.426 59.8351 53.826 60.6271 53.406C61.4311 52.986 62.3371 52.776 63.3451 52.776C64.3531 52.776 65.2531 52.986 66.0451 53.406C66.8491 53.826 67.4791 54.426 67.9351 55.206C68.4031 55.986 68.6371 56.898 68.6371 57.942C68.6371 58.986 68.4031 59.904 67.9351 60.696C67.4791 61.476 66.8491 62.076 66.0451 62.496C65.2411 62.916 64.3351 63.126 63.3271 63.126ZM63.3271 60.066C63.8191 60.066 64.2271 59.886 64.5511 59.526C64.8871 59.154 65.0551 58.626 65.0551 57.942C65.0551 57.258 64.8871 56.736 64.5511 56.376C64.2271 56.016 63.8251 55.836 63.3451 55.836C62.8651 55.836 62.4631 56.016 62.1391 56.376C61.8151 56.736 61.6531 57.258 61.6531 57.942C61.6531 58.638 61.8091 59.166 62.1211 59.526C62.4331 59.886 62.8351 60.066 63.3271 60.066ZM80.4045 52.902V63H76.8585V61.56C76.5585 62.016 76.1445 62.388 75.6165 62.676C75.0885 62.952 74.4825 63.09 73.7985 63.09C72.6225 63.09 71.6925 62.706 71.0085 61.938C70.3365 61.158 70.0005 60.102 70.0005 58.77V52.902H73.5105V58.32C73.5105 58.896 73.6605 59.352 73.9605 59.688C74.2725 60.012 74.6805 60.174 75.1845 60.174C75.7005 60.174 76.1085 60.012 76.4085 59.688C76.7085 59.352 76.8585 58.896 76.8585 58.32V52.902H80.4045ZM85.9403 54.684C86.3363 54.108 86.8163 53.652 87.3803 53.316C87.9443 52.98 88.5503 52.812 89.1983 52.812V56.574H88.2083C87.4403 56.574 86.8703 56.724 86.4983 57.024C86.1263 57.324 85.9403 57.846 85.9403 58.59V63H82.4123V52.902H85.9403V54.684ZM111.782 50.31L108.668 63H104.33L102.584 55.224L100.802 63H96.4644L93.3864 50.31H97.2024L98.6784 58.986L100.676 50.31H104.546L106.49 58.914L107.966 50.31H111.782ZM112.703 57.942C112.703 56.898 112.889 55.986 113.261 55.206C113.645 54.426 114.161 53.826 114.809 53.406C115.469 52.986 116.201 52.776 117.005 52.776C117.701 52.776 118.301 52.914 118.805 53.19C119.309 53.466 119.699 53.838 119.975 54.306V52.902H123.503V63H119.975V61.596C119.699 62.064 119.303 62.436 118.787 62.712C118.283 62.988 117.689 63.126 117.005 63.126C116.201 63.126 115.469 62.916 114.809 62.496C114.161 62.076 113.645 61.476 113.261 60.696C112.889 59.904 112.703 58.986 112.703 57.942ZM119.975 57.942C119.975 57.294 119.795 56.784 119.435 56.412C119.087 56.04 118.655 55.854 118.139 55.854C117.611 55.854 117.173 56.04 116.825 56.412C116.477 56.772 116.303 57.282 116.303 57.942C116.303 58.59 116.477 59.106 116.825 59.49C117.173 59.862 117.611 60.048 118.139 60.048C118.655 60.048 119.087 59.862 119.435 59.49C119.795 59.118 119.975 58.602 119.975 57.942ZM129.042 49.68V63H125.514V49.68H129.042ZM134.579 49.68V63H131.051V49.68H134.579ZM146.236 57.834C146.236 58.11 146.218 58.386 146.182 58.662H139.504C139.54 59.214 139.69 59.628 139.954 59.904C140.23 60.168 140.578 60.3 140.998 60.3C141.586 60.3 142.006 60.036 142.258 59.508H146.02C145.864 60.204 145.558 60.828 145.102 61.38C144.658 61.92 144.094 62.346 143.41 62.658C142.726 62.97 141.97 63.126 141.142 63.126C140.146 63.126 139.258 62.916 138.478 62.496C137.71 62.076 137.104 61.476 136.66 60.696C136.228 59.916 136.012 58.998 136.012 57.942C136.012 56.886 136.228 55.974 136.66 55.206C137.092 54.426 137.692 53.826 138.46 53.406C139.24 52.986 140.134 52.776 141.142 52.776C142.138 52.776 143.02 52.98 143.788 53.388C144.556 53.796 145.156 54.384 145.588 55.152C146.02 55.908 146.236 56.802 146.236 57.834ZM142.636 56.952C142.636 56.52 142.492 56.184 142.204 55.944C141.916 55.692 141.556 55.566 141.124 55.566C140.692 55.566 140.338 55.686 140.062 55.926C139.786 56.154 139.606 56.496 139.522 56.952H142.636ZM153.638 59.994V63H152.108C149.528 63 148.238 61.722 148.238 59.166V55.836H146.996V52.902H148.238V50.454H151.784V52.902H153.62V55.836H151.784V59.22C151.784 59.496 151.844 59.694 151.964 59.814C152.096 59.934 152.312 59.994 152.612 59.994H153.638Z" fill="white"/>
<path d="M1.152 34.992H-0.848V36.992H1.152V34.992ZM1.152 23.216V21.216H-0.848V23.216H1.152ZM20.864 23.216H22.864V21.216H20.864V23.216ZM20.864 70V72H22.864V70H20.864ZM7.744 70H5.744V72H7.744V70ZM7.744 34.992H9.744V32.992H7.744V34.992ZM3.152 34.992V23.216H-0.848V34.992H3.152ZM1.152 25.216H20.864V21.216H1.152V25.216ZM18.864 23.216V70H22.864V23.216H18.864ZM20.864 68H7.744V72H20.864V68ZM9.744 70V34.992H5.744V70H9.744ZM7.744 32.992H1.152V36.992H7.744V32.992Z" fill="white"/>
<path d="M292.576 29.628C292.576 28.38 292.834 27.27 293.35 26.298C293.878 25.314 294.622 24.552 295.582 24.012C296.542 23.46 297.646 23.184 298.894 23.184C300.478 23.184 301.81 23.61 302.89 24.462C303.97 25.302 304.666 26.448 304.978 27.9H301.18C300.952 27.42 300.634 27.054 300.226 26.802C299.83 26.55 299.368 26.424 298.84 26.424C298.024 26.424 297.37 26.718 296.878 27.306C296.398 27.882 296.158 28.656 296.158 29.628C296.158 30.612 296.398 31.398 296.878 31.986C297.37 32.562 298.024 32.85 298.84 32.85C299.368 32.85 299.83 32.724 300.226 32.472C300.634 32.22 300.952 31.854 301.18 31.374H304.978C304.666 32.826 303.97 33.978 302.89 34.83C301.81 35.67 300.478 36.09 298.894 36.09C297.646 36.09 296.542 35.82 295.582 35.28C294.622 34.728 293.878 33.966 293.35 32.994C292.834 32.01 292.576 30.888 292.576 29.628ZM311.347 36.126C310.339 36.126 309.433 35.916 308.629 35.496C307.837 35.076 307.213 34.476 306.757 33.696C306.301 32.916 306.073 31.998 306.073 30.942C306.073 29.898 306.301 28.986 306.757 28.206C307.225 27.426 307.855 26.826 308.647 26.406C309.451 25.986 310.357 25.776 311.365 25.776C312.373 25.776 313.273 25.986 314.065 26.406C314.869 26.826 315.499 27.426 315.955 28.206C316.423 28.986 316.657 29.898 316.657 30.942C316.657 31.986 316.423 32.904 315.955 33.696C315.499 34.476 314.869 35.076 314.065 35.496C313.261 35.916 312.355 36.126 311.347 36.126ZM311.347 33.066C311.839 33.066 312.247 32.886 312.571 32.526C312.907 32.154 313.075 31.626 313.075 30.942C313.075 30.258 312.907 29.736 312.571 29.376C312.247 29.016 311.845 28.836 311.365 28.836C310.885 28.836 310.483 29.016 310.159 29.376C309.835 29.736 309.673 30.258 309.673 30.942C309.673 31.638 309.829 32.166 310.141 32.526C310.453 32.886 310.855 33.066 311.347 33.066ZM324.698 25.812C325.862 25.812 326.786 26.202 327.47 26.982C328.154 27.75 328.496 28.794 328.496 30.114V36H324.968V30.582C324.968 30.006 324.818 29.556 324.518 29.232C324.218 28.896 323.816 28.728 323.312 28.728C322.784 28.728 322.37 28.896 322.07 29.232C321.77 29.556 321.62 30.006 321.62 30.582V36H318.092V25.902H321.62V27.342C321.932 26.886 322.352 26.52 322.88 26.244C323.408 25.956 324.014 25.812 324.698 25.812ZM337.038 25.812C338.202 25.812 339.126 26.202 339.81 26.982C340.494 27.75 340.836 28.794 340.836 30.114V36H337.308V30.582C337.308 30.006 337.158 29.556 336.858 29.232C336.558 28.896 336.156 28.728 335.652 28.728C335.124 28.728 334.71 28.896 334.41 29.232C334.11 29.556 333.96 30.006 333.96 30.582V36H330.432V25.902H333.96V27.342C334.272 26.886 334.692 26.52 335.22 26.244C335.748 25.956 336.354 25.812 337.038 25.812ZM352.42 30.834C352.42 31.11 352.402 31.386 352.366 31.662H345.688C345.724 32.214 345.874 32.628 346.138 32.904C346.414 33.168 346.762 33.3 347.182 33.3C347.77 33.3 348.19 33.036 348.442 32.508H352.204C352.048 33.204 351.742 33.828 351.286 34.38C350.842 34.92 350.278 35.346 349.594 35.658C348.91 35.97 348.154 36.126 347.326 36.126C346.33 36.126 345.442 35.916 344.662 35.496C343.894 35.076 343.288 34.476 342.844 33.696C342.412 32.916 342.196 31.998 342.196 30.942C342.196 29.886 342.412 28.974 342.844 28.206C343.276 27.426 343.876 26.826 344.644 26.406C345.424 25.986 346.318 25.776 347.326 25.776C348.322 25.776 349.204 25.98 349.972 26.388C350.74 26.796 351.34 27.384 351.772 28.152C352.204 28.908 352.42 29.802 352.42 30.834ZM348.82 29.952C348.82 29.52 348.676 29.184 348.388 28.944C348.1 28.692 347.74 28.566 347.308 28.566C346.876 28.566 346.522 28.686 346.246 28.926C345.97 29.154 345.79 29.496 345.706 29.952H348.82ZM353.287 30.942C353.287 29.898 353.503 28.986 353.935 28.206C354.367 27.426 354.967 26.826 355.735 26.406C356.515 25.986 357.403 25.776 358.399 25.776C359.683 25.776 360.763 26.13 361.639 26.838C362.515 27.534 363.079 28.512 363.331 29.772H359.587C359.371 29.112 358.951 28.782 358.327 28.782C357.883 28.782 357.529 28.968 357.265 29.34C357.013 29.7 356.887 30.234 356.887 30.942C356.887 31.65 357.013 32.19 357.265 32.562C357.529 32.934 357.883 33.12 358.327 33.12C358.963 33.12 359.383 32.79 359.587 32.13H363.331C363.079 33.378 362.515 34.356 361.639 35.064C360.763 35.772 359.683 36.126 358.399 36.126C357.403 36.126 356.515 35.916 355.735 35.496C354.967 35.076 354.367 34.476 353.935 33.696C353.503 32.916 353.287 31.998 353.287 30.942ZM370.755 32.994V36H369.225C366.645 36 365.355 34.722 365.355 32.166V28.836H364.113V25.902H365.355V23.454H368.901V25.902H370.737V28.836H368.901V32.22C368.901 32.496 368.961 32.694 369.081 32.814C369.213 32.934 369.429 32.994 369.729 32.994H370.755ZM304.546 50.31L300.082 58.968V63H296.536V58.968L292.072 50.31H296.104L298.336 55.206L300.568 50.31H304.546ZM310.327 63.126C309.319 63.126 308.413 62.916 307.609 62.496C306.817 62.076 306.193 61.476 305.737 60.696C305.281 59.916 305.053 58.998 305.053 57.942C305.053 56.898 305.281 55.986 305.737 55.206C306.205 54.426 306.835 53.826 307.627 53.406C308.431 52.986 309.337 52.776 310.345 52.776C311.353 52.776 312.253 52.986 313.045 53.406C313.849 53.826 314.479 54.426 314.935 55.206C315.403 55.986 315.637 56.898 315.637 57.942C315.637 58.986 315.403 59.904 314.935 60.696C314.479 61.476 313.849 62.076 313.045 62.496C312.241 62.916 311.335 63.126 310.327 63.126ZM310.327 60.066C310.819 60.066 311.227 59.886 311.551 59.526C311.887 59.154 312.055 58.626 312.055 57.942C312.055 57.258 311.887 56.736 311.551 56.376C311.227 56.016 310.825 55.836 310.345 55.836C309.865 55.836 309.463 56.016 309.139 56.376C308.815 56.736 308.653 57.258 308.653 57.942C308.653 58.638 308.809 59.166 309.121 59.526C309.433 59.886 309.835 60.066 310.327 60.066ZM327.404 52.902V63H323.858V61.56C323.558 62.016 323.144 62.388 322.616 62.676C322.088 62.952 321.482 63.09 320.798 63.09C319.622 63.09 318.692 62.706 318.008 61.938C317.336 61.158 317 60.102 317 58.77V52.902H320.51V58.32C320.51 58.896 320.66 59.352 320.96 59.688C321.272 60.012 321.68 60.174 322.184 60.174C322.7 60.174 323.108 60.012 323.408 59.688C323.708 59.352 323.858 58.896 323.858 58.32V52.902H327.404ZM332.94 54.684C333.336 54.108 333.816 53.652 334.38 53.316C334.944 52.98 335.55 52.812 336.198 52.812V56.574H335.208C334.44 56.574 333.87 56.724 333.498 57.024C333.126 57.324 332.94 57.846 332.94 58.59V63H329.412V52.902H332.94V54.684ZM358.782 50.31L355.668 63H351.33L349.584 55.224L347.802 63H343.464L340.386 50.31H344.202L345.678 58.986L347.676 50.31H351.546L353.49 58.914L354.966 50.31H358.782ZM359.703 57.942C359.703 56.898 359.889 55.986 360.261 55.206C360.645 54.426 361.161 53.826 361.809 53.406C362.469 52.986 363.201 52.776 364.005 52.776C364.701 52.776 365.301 52.914 365.805 53.19C366.309 53.466 366.699 53.838 366.975 54.306V52.902H370.503V63H366.975V61.596C366.699 62.064 366.303 62.436 365.787 62.712C365.283 62.988 364.689 63.126 364.005 63.126C363.201 63.126 362.469 62.916 361.809 62.496C361.161 62.076 360.645 61.476 360.261 60.696C359.889 59.904 359.703 58.986 359.703 57.942ZM366.975 57.942C366.975 57.294 366.795 56.784 366.435 56.412C366.087 56.04 365.655 55.854 365.139 55.854C364.611 55.854 364.173 56.04 363.825 56.412C363.477 56.772 363.303 57.282 363.303 57.942C363.303 58.59 363.477 59.106 363.825 59.49C364.173 59.862 364.611 60.048 365.139 60.048C365.655 60.048 366.087 59.862 366.435 59.49C366.795 59.118 366.975 58.602 366.975 57.942ZM376.042 49.68V63H372.514V49.68H376.042ZM381.579 49.68V63H378.051V49.68H381.579ZM393.236 57.834C393.236 58.11 393.218 58.386 393.182 58.662H386.504C386.54 59.214 386.69 59.628 386.954 59.904C387.23 60.168 387.578 60.3 387.998 60.3C388.586 60.3 389.006 60.036 389.258 59.508H393.02C392.864 60.204 392.558 60.828 392.102 61.38C391.658 61.92 391.094 62.346 390.41 62.658C389.726 62.97 388.97 63.126 388.142 63.126C387.146 63.126 386.258 62.916 385.478 62.496C384.71 62.076 384.104 61.476 383.66 60.696C383.228 59.916 383.012 58.998 383.012 57.942C383.012 56.886 383.228 55.974 383.66 55.206C384.092 54.426 384.692 53.826 385.46 53.406C386.24 52.986 387.134 52.776 388.142 52.776C389.138 52.776 390.02 52.98 390.788 53.388C391.556 53.796 392.156 54.384 392.588 55.152C393.02 55.908 393.236 56.802 393.236 57.834ZM389.636 56.952C389.636 56.52 389.492 56.184 389.204 55.944C388.916 55.692 388.556 55.566 388.124 55.566C387.692 55.566 387.338 55.686 387.062 55.926C386.786 56.154 386.606 56.496 386.522 56.952H389.636ZM400.638 59.994V63H399.108C396.528 63 395.238 61.722 395.238 59.166V55.836H393.996V52.902H395.238V50.454H398.784V52.902H400.62V55.836H398.784V59.22C398.784 59.496 398.844 59.694 398.964 59.814C399.096 59.934 399.312 59.994 399.612 59.994H400.638Z" fill="white"/>
<path d="M236.112 59.952L234.879 58.3777L234.112 58.9782V59.952H236.112ZM246.288 51.568L244.961 50.0718L246.288 51.568ZM252.944 44.336L254.564 45.509L254.569 45.5025L254.573 45.4959L252.944 44.336ZM254.672 33.968L253.093 35.1959L253.114 35.2225L253.136 35.2484L254.672 33.968ZM249.104 34.416L250.768 35.5254L250.778 35.5098L250.789 35.4941L249.104 34.416ZM248.144 38.96V40.96H250.187L250.144 38.9175L248.144 38.96ZM235.984 38.96L233.985 38.8926L233.915 40.96H235.984V38.96ZM238.48 29.552L240.179 30.6067L240.183 30.6002L240.187 30.5937L238.48 29.552ZM244.496 24.048L245.34 25.8612L245.353 25.8552L245.365 25.8491L244.496 24.048ZM264.464 26.16L265.89 24.7575H265.89L264.464 26.16ZM263.824 48.752L262.239 47.5325L262.23 47.5436L263.824 48.752ZM252.752 59.184L251.614 57.5396L246.349 61.184H252.752V59.184ZM268.752 59.184H270.752V57.184H268.752V59.184ZM268.752 69.36V71.36H270.752V69.36H268.752ZM236.112 69.36H234.112V71.36H236.112V69.36ZM237.345 61.5263C241.502 58.2694 244.929 55.4474 247.615 53.0641L244.961 50.0718C242.357 52.382 238.999 55.1493 234.879 58.3777L237.345 61.5263ZM247.615 53.0641C250.353 50.6355 252.674 48.1185 254.564 45.509L251.324 43.163C249.63 45.5028 247.514 47.8071 244.961 50.0718L247.615 53.0641ZM254.573 45.4959C256.52 42.7613 257.632 39.9728 257.632 37.168H253.632C253.632 38.8859 252.952 40.876 251.315 43.1761L254.573 45.4959ZM257.632 37.168C257.632 35.5055 257.242 33.9274 256.208 32.6876L253.136 35.2484C253.382 35.5446 253.632 36.0998 253.632 37.168H257.632ZM256.251 32.7401C255.188 31.3739 253.64 30.816 251.984 30.816V34.816C252.717 34.816 252.961 35.0261 253.093 35.1959L256.251 32.7401ZM251.984 30.816C250.045 30.816 248.459 31.7132 247.419 33.3379L250.789 35.4941C251.114 34.9855 251.448 34.816 251.984 34.816V30.816ZM247.44 33.3066C246.428 34.825 246.098 36.8229 246.144 39.0025L250.144 38.9175C250.105 37.0864 250.415 36.055 250.768 35.5254L247.44 33.3066ZM248.144 36.96H235.984V40.96H248.144V36.96ZM237.983 39.0274C238.103 35.476 238.876 32.7069 240.179 30.6067L236.781 28.4973C235.012 31.3464 234.121 34.8493 233.985 38.8926L237.983 39.0274ZM240.187 30.5937C241.535 28.3847 243.252 26.8333 245.34 25.8612L243.652 22.2348C240.791 23.5667 238.497 25.6846 236.773 28.5103L240.187 30.5937ZM245.365 25.8491C247.542 24.7983 249.993 24.256 252.752 24.256V20.256C249.453 20.256 246.399 20.9084 243.627 22.2469L245.365 25.8491ZM252.752 24.256C257.7 24.256 260.993 25.4828 263.038 27.5625L265.89 24.7575C262.815 21.6318 258.3 20.256 252.752 20.256V24.256ZM263.038 27.5625C265.18 29.74 266.304 32.5819 266.304 36.272H270.304C270.304 31.6848 268.868 27.7853 265.89 24.7575L263.038 27.5625ZM266.304 36.272C266.304 40.2221 264.986 43.9611 262.239 47.5326L265.409 49.9714C268.635 45.7776 270.304 41.1966 270.304 36.272H266.304ZM262.23 47.5436C259.427 51.2407 255.896 54.5751 251.614 57.5396L253.89 60.8284C258.483 57.6489 262.333 54.0286 265.418 49.9604L262.23 47.5436ZM252.752 61.184H268.752V57.184H252.752V61.184ZM266.752 59.184V69.36H270.752V59.184H266.752ZM268.752 67.36H236.112V71.36H268.752V67.36ZM238.112 69.36V59.952H234.112V69.36H238.112Z" fill="#FF5C00"/>
<path d="M540.576 29.628C540.576 28.38 540.834 27.27 541.35 26.298C541.878 25.314 542.622 24.552 543.582 24.012C544.542 23.46 545.646 23.184 546.894 23.184C548.478 23.184 549.81 23.61 550.89 24.462C551.97 25.302 552.666 26.448 552.978 27.9H549.18C548.952 27.42 548.634 27.054 548.226 26.802C547.83 26.55 547.368 26.424 546.84 26.424C546.024 26.424 545.37 26.718 544.878 27.306C544.398 27.882 544.158 28.656 544.158 29.628C544.158 30.612 544.398 31.398 544.878 31.986C545.37 32.562 546.024 32.85 546.84 32.85C547.368 32.85 547.83 32.724 548.226 32.472C548.634 32.22 548.952 31.854 549.18 31.374H552.978C552.666 32.826 551.97 33.978 550.89 34.83C549.81 35.67 548.478 36.09 546.894 36.09C545.646 36.09 544.542 35.82 543.582 35.28C542.622 34.728 541.878 33.966 541.35 32.994C540.834 32.01 540.576 30.888 540.576 29.628ZM559.347 36.126C558.339 36.126 557.433 35.916 556.629 35.496C555.837 35.076 555.213 34.476 554.757 33.696C554.301 32.916 554.073 31.998 554.073 30.942C554.073 29.898 554.301 28.986 554.757 28.206C555.225 27.426 555.855 26.826 556.647 26.406C557.451 25.986 558.357 25.776 559.365 25.776C560.373 25.776 561.273 25.986 562.065 26.406C562.869 26.826 563.499 27.426 563.955 28.206C564.423 28.986 564.657 29.898 564.657 30.942C564.657 31.986 564.423 32.904 563.955 33.696C563.499 34.476 562.869 35.076 562.065 35.496C561.261 35.916 560.355 36.126 559.347 36.126ZM559.347 33.066C559.839 33.066 560.247 32.886 560.571 32.526C560.907 32.154 561.075 31.626 561.075 30.942C561.075 30.258 560.907 29.736 560.571 29.376C560.247 29.016 559.845 28.836 559.365 28.836C558.885 28.836 558.483 29.016 558.159 29.376C557.835 29.736 557.673 30.258 557.673 30.942C557.673 31.638 557.829 32.166 558.141 32.526C558.453 32.886 558.855 33.066 559.347 33.066ZM572.698 25.812C573.862 25.812 574.786 26.202 575.47 26.982C576.154 27.75 576.496 28.794 576.496 30.114V36H572.968V30.582C572.968 30.006 572.818 29.556 572.518 29.232C572.218 28.896 571.816 28.728 571.312 28.728C570.784 28.728 570.37 28.896 570.07 29.232C569.77 29.556 569.62 30.006 569.62 30.582V36H566.092V25.902H569.62V27.342C569.932 26.886 570.352 26.52 570.88 26.244C571.408 25.956 572.014 25.812 572.698 25.812ZM585.038 25.812C586.202 25.812 587.126 26.202 587.81 26.982C588.494 27.75 588.836 28.794 588.836 30.114V36H585.308V30.582C585.308 30.006 585.158 29.556 584.858 29.232C584.558 28.896 584.156 28.728 583.652 28.728C583.124 28.728 582.71 28.896 582.41 29.232C582.11 29.556 581.96 30.006 581.96 30.582V36H578.432V25.902H581.96V27.342C582.272 26.886 582.692 26.52 583.22 26.244C583.748 25.956 584.354 25.812 585.038 25.812ZM600.42 30.834C600.42 31.11 600.402 31.386 600.366 31.662H593.688C593.724 32.214 593.874 32.628 594.138 32.904C594.414 33.168 594.762 33.3 595.182 33.3C595.77 33.3 596.19 33.036 596.442 32.508H600.204C600.048 33.204 599.742 33.828 599.286 34.38C598.842 34.92 598.278 35.346 597.594 35.658C596.91 35.97 596.154 36.126 595.326 36.126C594.33 36.126 593.442 35.916 592.662 35.496C591.894 35.076 591.288 34.476 590.844 33.696C590.412 32.916 590.196 31.998 590.196 30.942C590.196 29.886 590.412 28.974 590.844 28.206C591.276 27.426 591.876 26.826 592.644 26.406C593.424 25.986 594.318 25.776 595.326 25.776C596.322 25.776 597.204 25.98 597.972 26.388C598.74 26.796 599.34 27.384 599.772 28.152C600.204 28.908 600.42 29.802 600.42 30.834ZM596.82 29.952C596.82 29.52 596.676 29.184 596.388 28.944C596.1 28.692 595.74 28.566 595.308 28.566C594.876 28.566 594.522 28.686 594.246 28.926C593.97 29.154 593.79 29.496 593.706 29.952H596.82ZM601.287 30.942C601.287 29.898 601.503 28.986 601.935 28.206C602.367 27.426 602.967 26.826 603.735 26.406C604.515 25.986 605.403 25.776 606.399 25.776C607.683 25.776 608.763 26.13 609.639 26.838C610.515 27.534 611.079 28.512 611.331 29.772H607.587C607.371 29.112 606.951 28.782 606.327 28.782C605.883 28.782 605.529 28.968 605.265 29.34C605.013 29.7 604.887 30.234 604.887 30.942C604.887 31.65 605.013 32.19 605.265 32.562C605.529 32.934 605.883 33.12 606.327 33.12C606.963 33.12 607.383 32.79 607.587 32.13H611.331C611.079 33.378 610.515 34.356 609.639 35.064C608.763 35.772 607.683 36.126 606.399 36.126C605.403 36.126 604.515 35.916 603.735 35.496C602.967 35.076 602.367 34.476 601.935 33.696C601.503 32.916 601.287 31.998 601.287 30.942ZM618.755 32.994V36H617.225C614.645 36 613.355 34.722 613.355 32.166V28.836H612.113V25.902H613.355V23.454H616.901V25.902H618.737V28.836H616.901V32.22C616.901 32.496 616.961 32.694 617.081 32.814C617.213 32.934 617.429 32.994 617.729 32.994H618.755ZM552.546 50.31L548.082 58.968V63H544.536V58.968L540.072 50.31H544.104L546.336 55.206L548.568 50.31H552.546ZM558.327 63.126C557.319 63.126 556.413 62.916 555.609 62.496C554.817 62.076 554.193 61.476 553.737 60.696C553.281 59.916 553.053 58.998 553.053 57.942C553.053 56.898 553.281 55.986 553.737 55.206C554.205 54.426 554.835 53.826 555.627 53.406C556.431 52.986 557.337 52.776 558.345 52.776C559.353 52.776 560.253 52.986 561.045 53.406C561.849 53.826 562.479 54.426 562.935 55.206C563.403 55.986 563.637 56.898 563.637 57.942C563.637 58.986 563.403 59.904 562.935 60.696C562.479 61.476 561.849 62.076 561.045 62.496C560.241 62.916 559.335 63.126 558.327 63.126ZM558.327 60.066C558.819 60.066 559.227 59.886 559.551 59.526C559.887 59.154 560.055 58.626 560.055 57.942C560.055 57.258 559.887 56.736 559.551 56.376C559.227 56.016 558.825 55.836 558.345 55.836C557.865 55.836 557.463 56.016 557.139 56.376C556.815 56.736 556.653 57.258 556.653 57.942C556.653 58.638 556.809 59.166 557.121 59.526C557.433 59.886 557.835 60.066 558.327 60.066ZM575.404 52.902V63H571.858V61.56C571.558 62.016 571.144 62.388 570.616 62.676C570.088 62.952 569.482 63.09 568.798 63.09C567.622 63.09 566.692 62.706 566.008 61.938C565.336 61.158 565 60.102 565 58.77V52.902H568.51V58.32C568.51 58.896 568.66 59.352 568.96 59.688C569.272 60.012 569.68 60.174 570.184 60.174C570.7 60.174 571.108 60.012 571.408 59.688C571.708 59.352 571.858 58.896 571.858 58.32V52.902H575.404ZM580.94 54.684C581.336 54.108 581.816 53.652 582.38 53.316C582.944 52.98 583.55 52.812 584.198 52.812V56.574H583.208C582.44 56.574 581.87 56.724 581.498 57.024C581.126 57.324 580.94 57.846 580.94 58.59V63H577.412V52.902H580.94V54.684ZM606.782 50.31L603.668 63H599.33L597.584 55.224L595.802 63H591.464L588.386 50.31H592.202L593.678 58.986L595.676 50.31H599.546L601.49 58.914L602.966 50.31H606.782ZM607.703 57.942C607.703 56.898 607.889 55.986 608.261 55.206C608.645 54.426 609.161 53.826 609.809 53.406C610.469 52.986 611.201 52.776 612.005 52.776C612.701 52.776 613.301 52.914 613.805 53.19C614.309 53.466 614.699 53.838 614.975 54.306V52.902H618.503V63H614.975V61.596C614.699 62.064 614.303 62.436 613.787 62.712C613.283 62.988 612.689 63.126 612.005 63.126C611.201 63.126 610.469 62.916 609.809 62.496C609.161 62.076 608.645 61.476 608.261 60.696C607.889 59.904 607.703 58.986 607.703 57.942ZM614.975 57.942C614.975 57.294 614.795 56.784 614.435 56.412C614.087 56.04 613.655 55.854 613.139 55.854C612.611 55.854 612.173 56.04 611.825 56.412C611.477 56.772 611.303 57.282 611.303 57.942C611.303 58.59 611.477 59.106 611.825 59.49C612.173 59.862 612.611 60.048 613.139 60.048C613.655 60.048 614.087 59.862 614.435 59.49C614.795 59.118 614.975 58.602 614.975 57.942ZM624.042 49.68V63H620.514V49.68H624.042ZM629.579 49.68V63H626.051V49.68H629.579ZM641.236 57.834C641.236 58.11 641.218 58.386 641.182 58.662H634.504C634.54 59.214 634.69 59.628 634.954 59.904C635.23 60.168 635.578 60.3 635.998 60.3C636.586 60.3 637.006 60.036 637.258 59.508H641.02C640.864 60.204 640.558 60.828 640.102 61.38C639.658 61.92 639.094 62.346 638.41 62.658C637.726 62.97 636.97 63.126 636.142 63.126C635.146 63.126 634.258 62.916 633.478 62.496C632.71 62.076 632.104 61.476 631.66 60.696C631.228 59.916 631.012 58.998 631.012 57.942C631.012 56.886 631.228 55.974 631.66 55.206C632.092 54.426 632.692 53.826 633.46 53.406C634.24 52.986 635.134 52.776 636.142 52.776C637.138 52.776 638.02 52.98 638.788 53.388C639.556 53.796 640.156 54.384 640.588 55.152C641.02 55.908 641.236 56.802 641.236 57.834ZM637.636 56.952C637.636 56.52 637.492 56.184 637.204 55.944C636.916 55.692 636.556 55.566 636.124 55.566C635.692 55.566 635.338 55.686 635.062 55.926C634.786 56.154 634.606 56.496 634.522 56.952H637.636ZM648.638 59.994V63H647.108C644.528 63 643.238 61.722 643.238 59.166V55.836H641.996V52.902H643.238V50.454H646.784V52.902H648.62V55.836H646.784V59.22C646.784 59.496 646.844 59.694 646.964 59.814C647.096 59.934 647.312 59.994 647.612 59.994H648.638Z" fill="white"/>
<path d="M484.072 37.168L482.073 37.0972L482 39.168H484.072V37.168ZM488.552 26.096L489.897 27.5759L489.903 27.5703L489.909 27.5648L488.552 26.096ZM508.712 23.92L507.818 25.7089L507.837 25.7187L507.857 25.7281L508.712 23.92ZM514.024 28.528L512.316 29.5679L512.321 29.5763L512.326 29.5846L514.024 28.528ZM513.704 42.032L515.247 43.3048L515.254 43.2954L515.262 43.286L513.704 42.032ZM508.904 45.488L508.272 43.5906L506.904 44.0465V45.488H508.904ZM508.904 45.744H506.904V47.134L508.207 47.6186L508.904 45.744ZM514.792 63.856L513.08 62.8218V62.8218L514.792 63.856ZM509.416 68.656L510.297 70.4513L509.416 68.656ZM488.36 66.544L487.067 68.07L487.079 68.0796L487.09 68.0891L488.36 66.544ZM483.56 54.64V52.64H481.511L481.561 54.688L483.56 54.64ZM495.784 54.64L497.782 54.7399L497.886 52.64H495.784V54.64ZM496.872 58.608L495.358 59.9152V59.9152L496.872 58.608ZM503.4 58.864L501.946 57.4908L501.925 57.5127L501.905 57.5353L503.4 58.864ZM502.888 52.208L501.688 53.808L501.704 53.8197L501.719 53.8311L502.888 52.208ZM495.592 51.056H493.592V53.056H495.592V51.056ZM495.592 40.88V38.88H493.592V40.88H495.592ZM497.768 40.88L497.821 38.8807L497.794 38.88H497.768V40.88ZM501.864 40.112L502.758 41.9009L502.772 41.8943L502.785 41.8875L501.864 40.112ZM502.632 33.648L501.173 35.0159L501.195 35.0394L501.218 35.0622L502.632 33.648ZM497.256 33.968L495.592 32.8586L495.585 32.8683L495.579 32.878L497.256 33.968ZM496.296 37.168V39.168H498.167L498.292 37.301L496.296 37.168ZM486.071 37.2388C486.228 32.8038 487.58 29.6824 489.897 27.5759L487.207 24.6161C483.892 27.6296 482.258 31.8895 482.073 37.0972L486.071 37.2388ZM489.909 27.5648C492.252 25.3995 495.635 24.192 500.328 24.192V20.192C494.952 20.192 490.484 21.5872 487.195 24.6272L489.909 27.5648ZM500.328 24.192C503.386 24.192 505.857 24.7286 507.818 25.7089L509.606 22.1311C506.959 20.8074 503.841 20.192 500.328 20.192V24.192ZM507.857 25.7281C509.898 26.6927 511.35 27.9813 512.316 29.5679L515.732 27.4881C514.309 25.1493 512.22 23.3659 509.567 22.1119L507.857 25.7281ZM512.326 29.5846C513.308 31.1635 513.816 32.9681 513.816 35.056H517.816C517.816 32.2799 517.129 29.7325 515.722 27.4714L512.326 29.5846ZM513.816 35.056C513.816 37.6361 513.193 39.4765 512.146 40.778L515.262 43.286C517.031 41.0888 517.816 38.2786 517.816 35.056H513.816ZM512.161 40.7592C510.951 42.2268 509.65 43.1311 508.272 43.5906L509.536 47.3854C511.742 46.6503 513.641 45.2505 515.247 43.3048L512.161 40.7592ZM506.904 45.488V45.744H510.904V45.488H506.904ZM508.207 47.6186C510.497 48.4701 512.066 49.6514 513.076 51.0868C514.084 52.5196 514.648 54.3674 514.648 56.752H518.648C518.648 53.7179 517.921 51.0218 516.348 48.7852C514.776 46.5513 512.474 44.9379 509.601 43.8694L508.207 47.6186ZM514.648 56.752C514.648 59.1216 514.106 61.123 513.08 62.8218L516.504 64.8902C517.952 62.493 518.648 59.7584 518.648 56.752H514.648ZM513.08 62.8218C512.059 64.5115 510.57 65.8613 508.535 66.8607L510.297 70.4513C512.955 69.1467 515.05 67.2965 516.504 64.8902L513.08 62.8218ZM508.535 66.8607C506.52 67.8496 504.041 68.384 501.032 68.384V72.384C504.508 72.384 507.618 71.7664 510.297 70.4513L508.535 66.8607ZM501.032 68.384C496.011 68.384 492.285 67.1816 489.63 64.9989L487.09 68.0891C490.664 71.0264 495.386 72.384 501.032 72.384V68.384ZM489.653 65.018C487.147 62.8946 485.678 59.5502 485.559 54.592L481.561 54.688C481.698 60.3965 483.429 64.988 487.067 68.07L489.653 65.018ZM483.56 56.64H495.784V52.64H483.56V56.64ZM493.786 54.5401C493.685 56.5638 494.102 58.46 495.358 59.9152L498.386 57.3008C498.021 56.8786 497.712 56.1295 497.782 54.7399L493.786 54.5401ZM495.358 59.9152C496.658 61.4198 498.508 62.016 500.52 62.016V58.016C499.29 58.016 498.708 57.6735 498.386 57.3008L495.358 59.9152ZM500.52 62.016C502.202 62.016 503.756 61.4743 504.895 60.1927L501.905 57.5353C501.679 57.7897 501.313 58.016 500.52 58.016V62.016ZM504.854 60.2372C506.001 59.0224 506.488 57.4683 506.488 55.792H502.488C502.488 56.6757 502.249 57.1696 501.946 57.4908L504.854 60.2372ZM506.488 55.792C506.488 53.696 505.769 51.8175 504.057 50.5849L501.719 53.8311C502.141 54.1345 502.488 54.6453 502.488 55.792H506.488ZM504.088 50.608C502.531 49.4399 500.297 49.056 497.832 49.056V53.056C500.06 53.056 501.197 53.4401 501.688 53.808L504.088 50.608ZM497.832 49.056H495.592V53.056H497.832V49.056ZM497.592 51.056V40.88H493.592V51.056H497.592ZM495.592 42.88H497.768V38.88H495.592V42.88ZM497.715 42.8793C499.567 42.928 501.279 42.6406 502.758 41.9009L500.97 38.3231C500.23 38.6928 499.211 38.9173 497.821 38.8807L497.715 42.8793ZM502.785 41.8875C504.83 40.8269 505.592 38.7875 505.592 36.592H501.592C501.592 37.8952 501.202 38.2024 500.943 38.3365L502.785 41.8875ZM505.592 36.592C505.592 34.9832 505.204 33.3921 504.046 32.2338L501.218 35.0622C501.34 35.1839 501.592 35.5554 501.592 36.592H505.592ZM504.091 32.2801C503.003 31.1195 501.559 30.624 500.008 30.624V34.624C500.676 34.624 500.981 34.8111 501.173 35.0159L504.091 32.2801ZM500.008 30.624C498.218 30.624 496.62 31.3161 495.592 32.8586L498.92 35.0774C499.086 34.8279 499.323 34.624 500.008 34.624V30.624ZM495.579 32.878C494.796 34.0832 494.403 35.5013 494.3 37.035L498.292 37.301C498.36 36.2747 498.607 35.5594 498.933 35.058L495.579 32.878ZM496.296 35.168H484.072V39.168H496.296V35.168Z" fill="#33FF00"/>
<path d="M793.576 29.628C793.576 28.38 793.834 27.27 794.35 26.298C794.878 25.314 795.622 24.552 796.582 24.012C797.542 23.46 798.646 23.184 799.894 23.184C801.478 23.184 802.81 23.61 803.89 24.462C804.97 25.302 805.666 26.448 805.978 27.9H802.18C801.952 27.42 801.634 27.054 801.226 26.802C800.83 26.55 800.368 26.424 799.84 26.424C799.024 26.424 798.37 26.718 797.878 27.306C797.398 27.882 797.158 28.656 797.158 29.628C797.158 30.612 797.398 31.398 797.878 31.986C798.37 32.562 799.024 32.85 799.84 32.85C800.368 32.85 800.83 32.724 801.226 32.472C801.634 32.22 801.952 31.854 802.18 31.374H805.978C805.666 32.826 804.97 33.978 803.89 34.83C802.81 35.67 801.478 36.09 799.894 36.09C798.646 36.09 797.542 35.82 796.582 35.28C795.622 34.728 794.878 33.966 794.35 32.994C793.834 32.01 793.576 30.888 793.576 29.628ZM812.347 36.126C811.339 36.126 810.433 35.916 809.629 35.496C808.837 35.076 808.213 34.476 807.757 33.696C807.301 32.916 807.073 31.998 807.073 30.942C807.073 29.898 807.301 28.986 807.757 28.206C808.225 27.426 808.855 26.826 809.647 26.406C810.451 25.986 811.357 25.776 812.365 25.776C813.373 25.776 814.273 25.986 815.065 26.406C815.869 26.826 816.499 27.426 816.955 28.206C817.423 28.986 817.657 29.898 817.657 30.942C817.657 31.986 817.423 32.904 816.955 33.696C816.499 34.476 815.869 35.076 815.065 35.496C814.261 35.916 813.355 36.126 812.347 36.126ZM812.347 33.066C812.839 33.066 813.247 32.886 813.571 32.526C813.907 32.154 814.075 31.626 814.075 30.942C814.075 30.258 813.907 29.736 813.571 29.376C813.247 29.016 812.845 28.836 812.365 28.836C811.885 28.836 811.483 29.016 811.159 29.376C810.835 29.736 810.673 30.258 810.673 30.942C810.673 31.638 810.829 32.166 811.141 32.526C811.453 32.886 811.855 33.066 812.347 33.066ZM825.698 25.812C826.862 25.812 827.786 26.202 828.47 26.982C829.154 27.75 829.496 28.794 829.496 30.114V36H825.968V30.582C825.968 30.006 825.818 29.556 825.518 29.232C825.218 28.896 824.816 28.728 824.312 28.728C823.784 28.728 823.37 28.896 823.07 29.232C822.77 29.556 822.62 30.006 822.62 30.582V36H819.092V25.902H822.62V27.342C822.932 26.886 823.352 26.52 823.88 26.244C824.408 25.956 825.014 25.812 825.698 25.812ZM838.038 25.812C839.202 25.812 840.126 26.202 840.81 26.982C841.494 27.75 841.836 28.794 841.836 30.114V36H838.308V30.582C838.308 30.006 838.158 29.556 837.858 29.232C837.558 28.896 837.156 28.728 836.652 28.728C836.124 28.728 835.71 28.896 835.41 29.232C835.11 29.556 834.96 30.006 834.96 30.582V36H831.432V25.902H834.96V27.342C835.272 26.886 835.692 26.52 836.22 26.244C836.748 25.956 837.354 25.812 838.038 25.812ZM853.42 30.834C853.42 31.11 853.402 31.386 853.366 31.662H846.688C846.724 32.214 846.874 32.628 847.138 32.904C847.414 33.168 847.762 33.3 848.182 33.3C848.77 33.3 849.19 33.036 849.442 32.508H853.204C853.048 33.204 852.742 33.828 852.286 34.38C851.842 34.92 851.278 35.346 850.594 35.658C849.91 35.97 849.154 36.126 848.326 36.126C847.33 36.126 846.442 35.916 845.662 35.496C844.894 35.076 844.288 34.476 843.844 33.696C843.412 32.916 843.196 31.998 843.196 30.942C843.196 29.886 843.412 28.974 843.844 28.206C844.276 27.426 844.876 26.826 845.644 26.406C846.424 25.986 847.318 25.776 848.326 25.776C849.322 25.776 850.204 25.98 850.972 26.388C851.74 26.796 852.34 27.384 852.772 28.152C853.204 28.908 853.42 29.802 853.42 30.834ZM849.82 29.952C849.82 29.52 849.676 29.184 849.388 28.944C849.1 28.692 848.74 28.566 848.308 28.566C847.876 28.566 847.522 28.686 847.246 28.926C846.97 29.154 846.79 29.496 846.706 29.952H849.82ZM854.287 30.942C854.287 29.898 854.503 28.986 854.935 28.206C855.367 27.426 855.967 26.826 856.735 26.406C857.515 25.986 858.403 25.776 859.399 25.776C860.683 25.776 861.763 26.13 862.639 26.838C863.515 27.534 864.079 28.512 864.331 29.772H860.587C860.371 29.112 859.951 28.782 859.327 28.782C858.883 28.782 858.529 28.968 858.265 29.34C858.013 29.7 857.887 30.234 857.887 30.942C857.887 31.65 858.013 32.19 858.265 32.562C858.529 32.934 858.883 33.12 859.327 33.12C859.963 33.12 860.383 32.79 860.587 32.13H864.331C864.079 33.378 863.515 34.356 862.639 35.064C861.763 35.772 860.683 36.126 859.399 36.126C858.403 36.126 857.515 35.916 856.735 35.496C855.967 35.076 855.367 34.476 854.935 33.696C854.503 32.916 854.287 31.998 854.287 30.942ZM871.755 32.994V36H870.225C867.645 36 866.355 34.722 866.355 32.166V28.836H865.113V25.902H866.355V23.454H869.901V25.902H871.737V28.836H869.901V32.22C869.901 32.496 869.961 32.694 870.081 32.814C870.213 32.934 870.429 32.994 870.729 32.994H871.755ZM805.546 50.31L801.082 58.968V63H797.536V58.968L793.072 50.31H797.104L799.336 55.206L801.568 50.31H805.546ZM811.327 63.126C810.319 63.126 809.413 62.916 808.609 62.496C807.817 62.076 807.193 61.476 806.737 60.696C806.281 59.916 806.053 58.998 806.053 57.942C806.053 56.898 806.281 55.986 806.737 55.206C807.205 54.426 807.835 53.826 808.627 53.406C809.431 52.986 810.337 52.776 811.345 52.776C812.353 52.776 813.253 52.986 814.045 53.406C814.849 53.826 815.479 54.426 815.935 55.206C816.403 55.986 816.637 56.898 816.637 57.942C816.637 58.986 816.403 59.904 815.935 60.696C815.479 61.476 814.849 62.076 814.045 62.496C813.241 62.916 812.335 63.126 811.327 63.126ZM811.327 60.066C811.819 60.066 812.227 59.886 812.551 59.526C812.887 59.154 813.055 58.626 813.055 57.942C813.055 57.258 812.887 56.736 812.551 56.376C812.227 56.016 811.825 55.836 811.345 55.836C810.865 55.836 810.463 56.016 810.139 56.376C809.815 56.736 809.653 57.258 809.653 57.942C809.653 58.638 809.809 59.166 810.121 59.526C810.433 59.886 810.835 60.066 811.327 60.066ZM828.404 52.902V63H824.858V61.56C824.558 62.016 824.144 62.388 823.616 62.676C823.088 62.952 822.482 63.09 821.798 63.09C820.622 63.09 819.692 62.706 819.008 61.938C818.336 61.158 818 60.102 818 58.77V52.902H821.51V58.32C821.51 58.896 821.66 59.352 821.96 59.688C822.272 60.012 822.68 60.174 823.184 60.174C823.7 60.174 824.108 60.012 824.408 59.688C824.708 59.352 824.858 58.896 824.858 58.32V52.902H828.404ZM833.94 54.684C834.336 54.108 834.816 53.652 835.38 53.316C835.944 52.98 836.55 52.812 837.198 52.812V56.574H836.208C835.44 56.574 834.87 56.724 834.498 57.024C834.126 57.324 833.94 57.846 833.94 58.59V63H830.412V52.902H833.94V54.684ZM859.782 50.31L856.668 63H852.33L850.584 55.224L848.802 63H844.464L841.386 50.31H845.202L846.678 58.986L848.676 50.31H852.546L854.49 58.914L855.966 50.31H859.782ZM860.703 57.942C860.703 56.898 860.889 55.986 861.261 55.206C861.645 54.426 862.161 53.826 862.809 53.406C863.469 52.986 864.201 52.776 865.005 52.776C865.701 52.776 866.301 52.914 866.805 53.19C867.309 53.466 867.699 53.838 867.975 54.306V52.902H871.503V63H867.975V61.596C867.699 62.064 867.303 62.436 866.787 62.712C866.283 62.988 865.689 63.126 865.005 63.126C864.201 63.126 863.469 62.916 862.809 62.496C862.161 62.076 861.645 61.476 861.261 60.696C860.889 59.904 860.703 58.986 860.703 57.942ZM867.975 57.942C867.975 57.294 867.795 56.784 867.435 56.412C867.087 56.04 866.655 55.854 866.139 55.854C865.611 55.854 865.173 56.04 864.825 56.412C864.477 56.772 864.303 57.282 864.303 57.942C864.303 58.59 864.477 59.106 864.825 59.49C865.173 59.862 865.611 60.048 866.139 60.048C866.655 60.048 867.087 59.862 867.435 59.49C867.795 59.118 867.975 58.602 867.975 57.942ZM877.042 49.68V63H873.514V49.68H877.042ZM882.579 49.68V63H879.051V49.68H882.579ZM894.236 57.834C894.236 58.11 894.218 58.386 894.182 58.662H887.504C887.54 59.214 887.69 59.628 887.954 59.904C888.23 60.168 888.578 60.3 888.998 60.3C889.586 60.3 890.006 60.036 890.258 59.508H894.02C893.864 60.204 893.558 60.828 893.102 61.38C892.658 61.92 892.094 62.346 891.41 62.658C890.726 62.97 889.97 63.126 889.142 63.126C888.146 63.126 887.258 62.916 886.478 62.496C885.71 62.076 885.104 61.476 884.66 60.696C884.228 59.916 884.012 58.998 884.012 57.942C884.012 56.886 884.228 55.974 884.66 55.206C885.092 54.426 885.692 53.826 886.46 53.406C887.24 52.986 888.134 52.776 889.142 52.776C890.138 52.776 891.02 52.98 891.788 53.388C892.556 53.796 893.156 54.384 893.588 55.152C894.02 55.908 894.236 56.802 894.236 57.834ZM890.636 56.952C890.636 56.52 890.492 56.184 890.204 55.944C889.916 55.692 889.556 55.566 889.124 55.566C888.692 55.566 888.338 55.686 888.062 55.926C887.786 56.154 887.606 56.496 887.522 56.952H890.636ZM901.638 59.994V63H900.108C897.528 63 896.238 61.722 896.238 59.166V55.836H894.996V52.902H896.238V50.454H899.784V52.902H901.62V55.836H899.784V59.22C899.784 59.496 899.844 59.694 899.964 59.814C900.096 59.934 900.312 59.994 900.612 59.994H901.638Z" fill="white"/>
<path d="M732.264 62.32H730.264V64.32H732.264V62.32ZM732.264 51.952L730.626 50.8041L730.264 51.3209V51.952H732.264ZM751.912 23.92V21.92H750.871L750.274 22.7721L751.912 23.92ZM765.672 23.92H767.672V21.92H765.672V23.92ZM765.672 51.44H763.672V53.44H765.672V51.44ZM770.6 51.44H772.6V49.44H770.6V51.44ZM770.6 62.32V64.32H772.6V62.32H770.6ZM765.672 62.32V60.32H763.672V62.32H765.672ZM765.672 70V72H767.672V70H765.672ZM753 70H751V72H753V70ZM753 62.32H755V60.32H753V62.32ZM753.96 38.064H755.96V31.4053L752.291 36.962L753.96 38.064ZM745.128 51.44L743.459 50.338L741.411 53.44H745.128V51.44ZM753.96 51.44V53.44H755.96V51.44H753.96ZM734.264 62.32V51.952H730.264V62.32H734.264ZM733.902 53.0999L753.55 25.0679L750.274 22.7721L730.626 50.8041L733.902 53.0999ZM751.912 25.92H765.672V21.92H751.912V25.92ZM763.672 23.92V51.44H767.672V23.92H763.672ZM765.672 53.44H770.6V49.44H765.672V53.44ZM768.6 51.44V62.32H772.6V51.44H768.6ZM770.6 60.32H765.672V64.32H770.6V60.32ZM763.672 62.32V70H767.672V62.32H763.672ZM765.672 68H753V72H765.672V68ZM755 70V62.32H751V70H755ZM753 60.32H732.264V64.32H753V60.32ZM752.291 36.962L743.459 50.338L746.797 52.542L755.629 39.166L752.291 36.962ZM745.128 53.44H753.96V49.44H745.128V53.44ZM755.96 51.44V38.064H751.96V51.44H755.96Z" fill="#FA00FF"/>
</svg>
