<svg width="1102" height="44" viewBox="0 0 1102 44" fill="none" xmlns="http://www.w3.org/2000/svg">
<rect width="117" height="38" transform="translate(985 3)" fill="#FF006C"/>
<path d="M1012.78 22.5979C1012.48 22.8884 1012.31 23.3063 1012.35 23.7525C1012.42 24.5175 1013.12 25.0771 1013.88 25.0771H1015.23V25.92C1015.23 27.3863 1014.03 28.5834 1012.57 28.5834H1004.43C1002.97 28.5834 1001.77 27.3863 1001.77 25.92V21.153C1001.77 19.6867 1002.97 18.4896 1004.43 18.4896H1012.57C1014.03 18.4896 1015.23 19.6867 1015.23 21.153V22.173H1013.8C1013.4 22.173 1013.04 22.3288 1012.78 22.5979Z" stroke="white" stroke-width="1.5" stroke-linecap="round" stroke-linejoin="round"/>
<path d="M1001.77 21.7904V18.5534C1001.77 17.7105 1002.29 16.9596 1003.07 16.6621L1008.7 14.5371C1009.58 14.2042 1010.52 14.8559 1010.52 15.7979V18.4896" stroke="white" stroke-width="1.5" stroke-linecap="round" stroke-linejoin="round"/>
<path d="M1015.98 22.8955V24.3547C1015.98 24.7443 1015.67 25.063 1015.27 25.0772H1013.88C1013.12 25.0772 1012.42 24.5176 1012.35 23.7526C1012.31 23.3064 1012.48 22.8884 1012.78 22.598C1013.04 22.3289 1013.4 22.173 1013.8 22.173H1015.27C1015.67 22.1872 1015.98 22.5059 1015.98 22.8955Z" stroke="white" stroke-width="1.5" stroke-linecap="round" stroke-linejoin="round"/>
<path d="M1004.96 21.5H1009.92" stroke="white" stroke-width="1.5" stroke-linecap="round" stroke-linejoin="round"/>
<path d="M1027.38 21.752C1027.38 20.92 1027.56 20.18 1027.9 19.532C1028.25 18.876 1028.75 18.368 1029.39 18.008C1030.03 17.64 1030.76 17.456 1031.6 17.456C1032.65 17.456 1033.54 17.74 1034.26 18.308C1034.98 18.868 1035.44 19.632 1035.65 20.6H1033.12C1032.97 20.28 1032.76 20.036 1032.48 19.868C1032.22 19.7 1031.91 19.616 1031.56 19.616C1031.02 19.616 1030.58 19.812 1030.25 20.204C1029.93 20.588 1029.77 21.104 1029.77 21.752C1029.77 22.408 1029.93 22.932 1030.25 23.324C1030.58 23.708 1031.02 23.9 1031.56 23.9C1031.91 23.9 1032.22 23.816 1032.48 23.648C1032.76 23.48 1032.97 23.236 1033.12 22.916H1035.65C1035.44 23.884 1034.98 24.652 1034.26 25.22C1033.54 25.78 1032.65 26.06 1031.6 26.06C1030.76 26.06 1030.03 25.88 1029.39 25.52C1028.75 25.152 1028.25 24.644 1027.9 23.996C1027.56 23.34 1027.38 22.592 1027.38 21.752ZM1040.82 26.084C1040.03 26.084 1039.3 25.9 1038.64 25.532C1037.97 25.156 1037.45 24.64 1037.05 23.984C1036.67 23.32 1036.48 22.572 1036.48 21.74C1036.48 20.908 1036.67 20.164 1037.05 19.508C1037.45 18.844 1037.97 18.328 1038.64 17.96C1039.3 17.592 1040.03 17.408 1040.82 17.408C1041.62 17.408 1042.35 17.592 1043.01 17.96C1043.67 18.328 1044.19 18.844 1044.58 19.508C1044.96 20.164 1045.15 20.908 1045.15 21.74C1045.15 22.572 1044.96 23.32 1044.58 23.984C1044.19 24.64 1043.67 25.156 1043.01 25.532C1042.34 25.9 1041.61 26.084 1040.82 26.084ZM1040.82 23.9C1041.42 23.9 1041.89 23.704 1042.24 23.312C1042.59 22.92 1042.77 22.396 1042.77 21.74C1042.77 21.068 1042.59 20.54 1042.24 20.156C1041.89 19.764 1041.42 19.568 1040.82 19.568C1040.21 19.568 1039.74 19.764 1039.39 20.156C1039.05 20.54 1038.88 21.068 1038.88 21.74C1038.88 22.404 1039.05 22.932 1039.39 23.324C1039.74 23.708 1040.21 23.9 1040.82 23.9ZM1054.05 26H1051.7L1048.56 21.272V26H1046.21V17.54H1048.56L1051.7 22.328V17.54H1054.05V26ZM1063.22 26H1060.87L1057.74 21.272V26H1055.39V17.54H1057.74L1060.87 22.328V17.54H1063.22V26ZM1066.91 19.424V20.804H1069.61V22.592H1066.91V24.116H1069.97V26H1064.56V17.54H1069.97V19.424H1066.91ZM1070.85 21.752C1070.85 20.92 1071.02 20.18 1071.36 19.532C1071.72 18.876 1072.21 18.368 1072.85 18.008C1073.49 17.64 1074.23 17.456 1075.06 17.456C1076.12 17.456 1077 17.74 1077.72 18.308C1078.44 18.868 1078.91 19.632 1079.12 20.6H1076.58C1076.43 20.28 1076.22 20.036 1075.95 19.868C1075.68 19.7 1075.38 19.616 1075.02 19.616C1074.48 19.616 1074.04 19.812 1073.72 20.204C1073.4 20.588 1073.24 21.104 1073.24 21.752C1073.24 22.408 1073.4 22.932 1073.72 23.324C1074.04 23.708 1074.48 23.9 1075.02 23.9C1075.38 23.9 1075.68 23.816 1075.95 23.648C1076.22 23.48 1076.43 23.236 1076.58 22.916H1079.12C1078.91 23.884 1078.44 24.652 1077.72 25.22C1077 25.78 1076.12 26.06 1075.06 26.06C1074.23 26.06 1073.49 25.88 1072.85 25.52C1072.21 25.152 1071.72 24.644 1071.36 23.996C1071.02 23.34 1070.85 22.592 1070.85 21.752ZM1086.6 17.54V19.412H1084.35V26H1081.99V19.412H1079.76V17.54H1086.6Z" fill="white"/>
<path d="M895.109 14.4358C895.104 14.4238 895.095 14.4143 895.084 14.4092C893.852 13.7455 892.552 13.2722 891.217 13.0012C891.205 12.9985 891.192 13.0004 891.181 13.0066C891.17 13.0128 891.161 13.023 891.155 13.0357C890.978 13.413 890.817 13.8005 890.673 14.1969C889.234 13.9402 887.769 13.9402 886.33 14.1969C886.185 13.7995 886.022 13.4119 885.841 13.0357C885.834 13.0233 885.825 13.0133 885.814 13.0072C885.803 13.001 885.791 12.9989 885.778 13.0012C884.443 13.2716 883.143 13.7449 881.911 14.4092C881.9 14.4145 881.891 14.4235 881.885 14.4349C879.422 18.7547 878.748 22.9682 879.079 27.1296C879.079 27.1398 879.082 27.1496 879.086 27.1586C879.091 27.1676 879.096 27.1754 879.103 27.1817C880.538 28.4289 882.142 29.3808 883.848 29.997C883.86 30.0012 883.872 30.001 883.884 29.9964C883.896 29.9918 883.907 29.9831 883.914 29.9713C884.281 29.3859 884.605 28.766 884.885 28.1179C884.889 28.109 884.891 28.0993 884.891 28.0893C884.892 28.0794 884.89 28.0694 884.887 28.0601C884.884 28.0509 884.879 28.0425 884.873 28.0355C884.867 28.0285 884.86 28.0231 884.852 28.0197C884.34 27.7897 883.844 27.5124 883.37 27.1905C883.361 27.1845 883.354 27.1762 883.349 27.1661C883.343 27.1561 883.34 27.1448 883.34 27.133C883.339 27.1213 883.341 27.1096 883.345 27.0989C883.349 27.0883 883.356 27.079 883.364 27.0719C883.463 26.9842 883.563 26.8931 883.658 26.801C883.667 26.7929 883.677 26.7876 883.688 26.7859C883.699 26.7842 883.71 26.7861 883.72 26.7913C886.829 28.4578 890.195 28.4578 893.268 26.7913C893.278 26.7857 893.289 26.7836 893.3 26.7852C893.311 26.7867 893.322 26.7919 893.33 26.8002C893.425 26.8922 893.525 26.9842 893.625 27.0719C893.633 27.0789 893.64 27.0881 893.644 27.0988C893.648 27.1094 893.65 27.1211 893.65 27.1328C893.649 27.1445 893.646 27.1559 893.641 27.166C893.636 27.176 893.629 27.1844 893.62 27.1905C893.147 27.5151 892.65 27.7922 892.137 28.0188C892.129 28.0224 892.122 28.0279 892.116 28.035C892.11 28.0421 892.105 28.0505 892.102 28.0599C892.099 28.0692 892.098 28.0792 892.098 28.0892C892.099 28.0992 892.101 28.109 892.105 28.1179C892.389 28.7624 892.713 29.3815 893.075 29.9703C893.082 29.9824 893.092 29.9914 893.104 29.9962C893.116 30.001 893.129 30.0012 893.141 29.9968C894.85 29.3828 896.457 28.4308 897.893 27.1817C897.9 27.1758 897.906 27.1681 897.911 27.1592C897.915 27.1504 897.917 27.1406 897.918 27.1304C898.314 22.3195 897.255 18.1405 895.109 14.4358ZM885.349 24.5957C884.413 24.5957 883.642 23.5868 883.642 22.3478C883.642 21.1088 884.398 20.0998 885.349 20.0998C886.308 20.0998 887.072 21.1175 887.057 22.3477C887.057 23.5868 886.3 24.5957 885.349 24.5957ZM891.663 24.5957C890.726 24.5957 889.955 23.5868 889.955 22.3478C889.955 21.1088 890.711 20.0998 891.663 20.0998C892.621 20.0998 893.385 21.1175 893.37 22.3477C893.37 23.5868 892.621 24.5957 891.663 24.5957Z" fill="white"/>
<path d="M914.276 17.54V23.144C914.276 24.096 914.016 24.824 913.496 25.328C912.984 25.832 912.276 26.084 911.372 26.084C910.412 26.084 909.644 25.816 909.068 25.28C908.5 24.744 908.216 23.972 908.216 22.964H910.544C910.552 23.628 910.796 23.96 911.276 23.96C911.708 23.96 911.924 23.688 911.924 23.144V17.54H914.276ZM919.736 26.084C918.944 26.084 918.216 25.9 917.552 25.532C916.888 25.156 916.36 24.64 915.968 23.984C915.584 23.32 915.392 22.572 915.392 21.74C915.392 20.908 915.584 20.164 915.968 19.508C916.36 18.844 916.888 18.328 917.552 17.96C918.216 17.592 918.944 17.408 919.736 17.408C920.536 17.408 921.264 17.592 921.92 17.96C922.584 18.328 923.108 18.844 923.492 19.508C923.876 20.164 924.068 20.908 924.068 21.74C924.068 22.572 923.876 23.32 923.492 23.984C923.108 24.64 922.584 25.156 921.92 25.532C921.256 25.9 920.528 26.084 919.736 26.084ZM919.736 23.9C920.336 23.9 920.808 23.704 921.152 23.312C921.504 22.92 921.68 22.396 921.68 21.74C921.68 21.068 921.504 20.54 921.152 20.156C920.808 19.764 920.336 19.568 919.736 19.568C919.128 19.568 918.652 19.764 918.308 20.156C917.964 20.54 917.792 21.068 917.792 21.74C917.792 22.404 917.964 22.932 918.308 23.324C918.652 23.708 919.128 23.9 919.736 23.9ZM927.477 17.54V26H925.125V17.54H927.477ZM936.653 26H934.301L931.169 21.272V26H928.817V17.54H931.169L934.301 22.328V17.54H936.653V26Z" fill="white"/>
<rect x="865" y="4" width="87" height="36" stroke="#FEFEFE" stroke-width="2"/>
<path d="M312.368 16.832V28H310.128V23.248H305.344V28H303.104V16.832H305.344V21.424H310.128V16.832H312.368ZM319.757 28.112C318.711 28.112 317.751 27.8667 316.877 27.376C316.002 26.8853 315.309 26.208 314.797 25.344C314.285 24.4693 314.029 23.4827 314.029 22.384C314.029 21.296 314.285 20.32 314.797 19.456C315.309 18.5813 316.002 17.8987 316.877 17.408C317.751 16.9173 318.711 16.672 319.757 16.672C320.813 16.672 321.773 16.9173 322.637 17.408C323.511 17.8987 324.199 18.5813 324.701 19.456C325.213 20.32 325.469 21.296 325.469 22.384C325.469 23.4827 325.213 24.4693 324.701 25.344C324.199 26.208 323.511 26.8853 322.637 27.376C321.762 27.8667 320.802 28.112 319.757 28.112ZM319.757 26.112C320.429 26.112 321.021 25.9627 321.533 25.664C322.045 25.3547 322.445 24.9173 322.733 24.352C323.021 23.7867 323.165 23.1307 323.165 22.384C323.165 21.6373 323.021 20.9867 322.733 20.432C322.445 19.8667 322.045 19.4347 321.533 19.136C321.021 18.8373 320.429 18.688 319.757 18.688C319.085 18.688 318.487 18.8373 317.965 19.136C317.453 19.4347 317.053 19.8667 316.765 20.432C316.477 20.9867 316.333 21.6373 316.333 22.384C316.333 23.1307 316.477 23.7867 316.765 24.352C317.053 24.9173 317.453 25.3547 317.965 25.664C318.487 25.9627 319.085 26.112 319.757 26.112ZM339.311 16.832V28H337.071V20.736L334.079 28H332.383L329.375 20.736V28H327.135V16.832H329.679L333.231 25.136L336.783 16.832H339.311ZM343.766 18.64V21.44H347.526V23.216H343.766V26.176H348.006V28H341.526V16.816H348.006V18.64H343.766Z" fill="white"/>
<path d="M385.952 25.872H381.504L380.768 28H378.416L382.432 16.816H385.04L389.056 28H386.688L385.952 25.872ZM385.344 24.08L383.728 19.408L382.112 24.08H385.344ZM396.893 22.272C397.522 22.3893 398.04 22.704 398.445 23.216C398.85 23.728 399.053 24.3147 399.053 24.976C399.053 25.5733 398.904 26.1013 398.605 26.56C398.317 27.008 397.896 27.36 397.341 27.616C396.786 27.872 396.13 28 395.373 28H390.557V16.832H395.165C395.922 16.832 396.573 16.9547 397.117 17.2C397.672 17.4453 398.088 17.7867 398.365 18.224C398.653 18.6613 398.797 19.1573 398.797 19.712C398.797 20.3627 398.621 20.9067 398.269 21.344C397.928 21.7813 397.469 22.0907 396.893 22.272ZM392.797 21.44H394.845C395.378 21.44 395.789 21.3227 396.077 21.088C396.365 20.8427 396.509 20.496 396.509 20.048C396.509 19.6 396.365 19.2533 396.077 19.008C395.789 18.7627 395.378 18.64 394.845 18.64H392.797V21.44ZM395.053 26.176C395.597 26.176 396.018 26.048 396.317 25.792C396.626 25.536 396.781 25.1733 396.781 24.704C396.781 24.224 396.621 23.8507 396.301 23.584C395.981 23.3067 395.549 23.168 395.005 23.168H392.797V26.176H395.053ZM406.022 28.112C404.977 28.112 404.017 27.8667 403.142 27.376C402.268 26.8853 401.574 26.208 401.062 25.344C400.55 24.4693 400.294 23.4827 400.294 22.384C400.294 21.296 400.55 20.32 401.062 19.456C401.574 18.5813 402.268 17.8987 403.142 17.408C404.017 16.9173 404.977 16.672 406.022 16.672C407.078 16.672 408.038 16.9173 408.902 17.408C409.777 17.8987 410.465 18.5813 410.966 19.456C411.478 20.32 411.734 21.296 411.734 22.384C411.734 23.4827 411.478 24.4693 410.966 25.344C410.465 26.208 409.777 26.8853 408.902 27.376C408.028 27.8667 407.068 28.112 406.022 28.112ZM406.022 26.112C406.694 26.112 407.286 25.9627 407.798 25.664C408.31 25.3547 408.71 24.9173 408.998 24.352C409.286 23.7867 409.43 23.1307 409.43 22.384C409.43 21.6373 409.286 20.9867 408.998 20.432C408.71 19.8667 408.31 19.4347 407.798 19.136C407.286 18.8373 406.694 18.688 406.022 18.688C405.35 18.688 404.753 18.8373 404.23 19.136C403.718 19.4347 403.318 19.8667 403.03 20.432C402.742 20.9867 402.598 21.6373 402.598 22.384C402.598 23.1307 402.742 23.7867 403.03 24.352C403.318 24.9173 403.718 25.3547 404.23 25.664C404.753 25.9627 405.35 26.112 406.022 26.112ZM415.609 16.832V23.744C415.609 24.5013 415.806 25.0827 416.201 25.488C416.596 25.8827 417.15 26.08 417.865 26.08C418.59 26.08 419.15 25.8827 419.545 25.488C419.94 25.0827 420.137 24.5013 420.137 23.744V16.832H422.393V23.728C422.393 24.6773 422.185 25.4827 421.769 26.144C421.364 26.7947 420.814 27.2853 420.121 27.616C419.438 27.9467 418.676 28.112 417.833 28.112C417.001 28.112 416.244 27.9467 415.561 27.616C414.889 27.2853 414.356 26.7947 413.961 26.144C413.566 25.4827 413.369 24.6773 413.369 23.728V16.832H415.609ZM432.157 16.832V18.64H429.181V28H426.941V18.64H423.965V16.832H432.157Z" fill="white"/>
<path d="M466.864 28L464.4 23.648H463.344V28H461.104V16.832H465.296C466.16 16.832 466.896 16.9867 467.504 17.296C468.112 17.5947 468.565 18.0053 468.864 18.528C469.173 19.04 469.328 19.616 469.328 20.256C469.328 20.992 469.115 21.6587 468.688 22.256C468.261 22.8427 467.627 23.248 466.784 23.472L469.456 28H466.864ZM463.344 21.968H465.216C465.824 21.968 466.277 21.824 466.576 21.536C466.875 21.2373 467.024 20.8267 467.024 20.304C467.024 19.792 466.875 19.3973 466.576 19.12C466.277 18.832 465.824 18.688 465.216 18.688H463.344V21.968ZM476.538 28.112C475.493 28.112 474.533 27.8667 473.658 27.376C472.783 26.8853 472.09 26.208 471.578 25.344C471.066 24.4693 470.81 23.4827 470.81 22.384C470.81 21.296 471.066 20.32 471.578 19.456C472.09 18.5813 472.783 17.8987 473.658 17.408C474.533 16.9173 475.493 16.672 476.538 16.672C477.594 16.672 478.554 16.9173 479.418 17.408C480.293 17.8987 480.981 18.5813 481.482 19.456C481.994 20.32 482.25 21.296 482.25 22.384C482.25 23.4827 481.994 24.4693 481.482 25.344C480.981 26.208 480.293 26.8853 479.418 27.376C478.543 27.8667 477.583 28.112 476.538 28.112ZM476.538 26.112C477.21 26.112 477.802 25.9627 478.314 25.664C478.826 25.3547 479.226 24.9173 479.514 24.352C479.802 23.7867 479.946 23.1307 479.946 22.384C479.946 21.6373 479.802 20.9867 479.514 20.432C479.226 19.8667 478.826 19.4347 478.314 19.136C477.802 18.8373 477.21 18.688 476.538 18.688C475.866 18.688 475.269 18.8373 474.746 19.136C474.234 19.4347 473.834 19.8667 473.546 20.432C473.258 20.9867 473.114 21.6373 473.114 22.384C473.114 23.1307 473.258 23.7867 473.546 24.352C473.834 24.9173 474.234 25.3547 474.746 25.664C475.269 25.9627 475.866 26.112 476.538 26.112ZM490.765 25.872H486.317L485.581 28H483.229L487.245 16.816H489.853L493.869 28H491.501L490.765 25.872ZM490.157 24.08L488.541 19.408L486.924 24.08H490.157ZM499.274 16.832C500.447 16.832 501.476 17.0613 502.362 17.52C503.258 17.9787 503.946 18.6347 504.426 19.488C504.916 20.3307 505.162 21.312 505.162 22.432C505.162 23.552 504.916 24.5333 504.426 25.376C503.946 26.208 503.258 26.8533 502.362 27.312C501.476 27.7707 500.447 28 499.274 28H495.37V16.832H499.274ZM499.194 26.096C500.367 26.096 501.274 25.776 501.914 25.136C502.554 24.496 502.874 23.5947 502.874 22.432C502.874 21.2693 502.554 20.3627 501.914 19.712C501.274 19.0507 500.367 18.72 499.194 18.72H497.61V26.096H499.194ZM519.014 16.832V28H516.774V20.736L513.782 28H512.086L509.078 20.736V28H506.838V16.832H509.382L512.934 25.136L516.486 16.832H519.014ZM528.077 25.872H523.629L522.893 28H520.541L524.557 16.816H527.165L531.181 28H528.813L528.077 25.872ZM527.469 24.08L525.853 19.408L524.237 24.08H527.469ZM540.826 20.288C540.826 20.8853 540.682 21.4453 540.394 21.968C540.117 22.4907 539.674 22.912 539.066 23.232C538.469 23.552 537.711 23.712 536.794 23.712H534.922V28H532.682V16.832H536.794C537.658 16.832 538.394 16.9813 539.002 17.28C539.61 17.5787 540.063 17.9893 540.362 18.512C540.671 19.0347 540.826 19.6267 540.826 20.288ZM536.698 21.904C537.317 21.904 537.775 21.7653 538.074 21.488C538.373 21.2 538.522 20.8 538.522 20.288C538.522 19.2 537.914 18.656 536.698 18.656H534.922V21.904H536.698Z" fill="white"/>
<path d="M573.704 16.832V18.64H570.728V28H568.488V18.64H565.512V16.832H573.704ZM577.578 18.64V21.44H581.338V23.216H577.578V26.176H581.818V28H575.338V16.816H581.818V18.64H577.578ZM590.702 25.872H586.254L585.518 28H583.166L587.182 16.816H589.79L593.806 28H591.438L590.702 25.872ZM590.094 24.08L588.478 19.408L586.862 24.08H590.094ZM607.483 16.832V28H605.243V20.736L602.251 28H600.555L597.547 20.736V28H595.307V16.832H597.851L601.403 25.136L604.955 16.832H607.483Z" fill="white"/>
<path d="M646 16.832V18.64H641.344V21.504H644.912V23.28H641.344V28H639.104V16.832H646ZM654.436 25.872H649.988L649.252 28H646.9L650.916 16.816H653.524L657.54 28H655.172L654.436 25.872ZM653.828 24.08L652.212 19.408L650.596 24.08H653.828ZM667.362 29.968L665.666 27.936C665.196 28.0533 664.716 28.112 664.226 28.112C663.18 28.112 662.22 27.8667 661.346 27.376C660.471 26.8853 659.778 26.208 659.266 25.344C658.754 24.4693 658.498 23.4827 658.498 22.384C658.498 21.296 658.754 20.32 659.266 19.456C659.778 18.5813 660.471 17.8987 661.346 17.408C662.22 16.9173 663.18 16.672 664.226 16.672C665.282 16.672 666.242 16.9173 667.106 17.408C667.98 17.8987 668.668 18.5813 669.17 19.456C669.682 20.32 669.938 21.296 669.938 22.384C669.938 23.376 669.724 24.2827 669.298 25.104C668.882 25.9147 668.311 26.576 667.586 27.088L670.146 29.968H667.362ZM660.802 22.384C660.802 23.1307 660.946 23.7867 661.234 24.352C661.522 24.9173 661.922 25.3547 662.434 25.664C662.956 25.9627 663.554 26.112 664.226 26.112C664.898 26.112 665.49 25.9627 666.002 25.664C666.514 25.3547 666.914 24.9173 667.202 24.352C667.49 23.7867 667.634 23.1307 667.634 22.384C667.634 21.6373 667.49 20.9867 667.202 20.432C666.914 19.8667 666.514 19.4347 666.002 19.136C665.49 18.8373 664.898 18.688 664.226 18.688C663.554 18.688 662.956 18.8373 662.434 19.136C661.922 19.4347 661.522 19.8667 661.234 20.432C660.946 20.9867 660.802 21.6373 660.802 22.384Z" fill="white"/>
<path d="M711.248 20.288C711.248 20.8853 711.104 21.4453 710.816 21.968C710.539 22.4907 710.096 22.912 709.488 23.232C708.891 23.552 708.133 23.712 707.216 23.712H705.344V28H703.104V16.832H707.216C708.08 16.832 708.816 16.9813 709.424 17.28C710.032 17.5787 710.485 17.9893 710.784 18.512C711.093 19.0347 711.248 19.6267 711.248 20.288ZM707.12 21.904C707.739 21.904 708.197 21.7653 708.496 21.488C708.795 21.2 708.944 20.8 708.944 20.288C708.944 19.2 708.336 18.656 707.12 18.656H705.344V21.904H707.12ZM719.686 25.872H715.238L714.502 28H712.15L716.166 16.816H718.774L722.79 28H720.422L719.686 25.872ZM719.078 24.08L717.462 19.408L715.846 24.08H719.078ZM732.068 20.192C731.812 19.7227 731.46 19.3653 731.012 19.12C730.564 18.8747 730.041 18.752 729.444 18.752C728.782 18.752 728.196 18.9013 727.684 19.2C727.172 19.4987 726.772 19.9253 726.484 20.48C726.196 21.0347 726.052 21.6747 726.052 22.4C726.052 23.1467 726.196 23.7973 726.484 24.352C726.782 24.9067 727.193 25.3333 727.716 25.632C728.238 25.9307 728.846 26.08 729.54 26.08C730.393 26.08 731.092 25.856 731.635 25.408C732.18 24.9493 732.537 24.3147 732.708 23.504H728.868V21.792H734.916V23.744C734.766 24.5227 734.446 25.2427 733.956 25.904C733.465 26.5653 732.83 27.0987 732.052 27.504C731.284 27.8987 730.42 28.096 729.46 28.096C728.382 28.096 727.406 27.856 726.532 27.376C725.668 26.8853 724.985 26.208 724.484 25.344C723.993 24.48 723.748 23.4987 723.748 22.4C723.748 21.3013 723.993 20.32 724.484 19.456C724.985 18.5813 725.668 17.904 726.532 17.424C727.406 16.9333 728.377 16.688 729.444 16.688C730.702 16.688 731.796 16.9973 732.724 17.616C733.652 18.224 734.292 19.0827 734.644 20.192H732.068ZM738.813 18.64V21.44H742.573V23.216H738.813V26.176H743.053V28H736.573V16.816H743.053V18.64H738.813ZM748.944 28.112C748.166 28.112 747.462 27.9787 746.832 27.712C746.214 27.4453 745.723 27.0613 745.36 26.56C744.998 26.0587 744.811 25.4667 744.8 24.784H747.2C747.232 25.2427 747.392 25.6053 747.68 25.872C747.979 26.1387 748.384 26.272 748.896 26.272C749.419 26.272 749.83 26.1493 750.128 25.904C750.427 25.648 750.576 25.3173 750.576 24.912C750.576 24.5813 750.475 24.3093 750.272 24.096C750.07 23.8827 749.814 23.7173 749.504 23.6C749.206 23.472 748.79 23.3333 748.256 23.184C747.531 22.9707 746.939 22.7627 746.48 22.56C746.032 22.3467 745.643 22.032 745.312 21.616C744.992 21.1893 744.832 20.624 744.832 19.92C744.832 19.2587 744.998 18.6827 745.328 18.192C745.659 17.7013 746.123 17.328 746.72 17.072C747.318 16.8053 748 16.672 748.768 16.672C749.92 16.672 750.854 16.9547 751.568 17.52C752.294 18.0747 752.694 18.8533 752.768 19.856H750.304C750.283 19.472 750.118 19.1573 749.808 18.912C749.51 18.656 749.11 18.528 748.608 18.528C748.171 18.528 747.819 18.64 747.552 18.864C747.296 19.088 747.168 19.4133 747.168 19.84C747.168 20.1387 747.264 20.3893 747.456 20.592C747.659 20.784 747.904 20.944 748.192 21.072C748.491 21.1893 748.907 21.328 749.44 21.488C750.166 21.7013 750.758 21.9147 751.216 22.128C751.675 22.3413 752.07 22.6613 752.4 23.088C752.731 23.5147 752.896 24.0747 752.896 24.768C752.896 25.3653 752.742 25.92 752.432 26.432C752.123 26.944 751.67 27.3547 751.072 27.664C750.475 27.9627 749.766 28.112 748.944 28.112ZM767.019 23.28H763.995V26.384H761.883V23.28H758.859V21.328H761.883V18.224H763.995V21.328H767.019V23.28Z" fill="white"/>
<path fill-rule="evenodd" clip-rule="evenodd" d="M34.2631 15.7051C34.9259 15.0423 35.92 15.0423 36.5828 16.0365L42.2164 27.3037C42.5478 27.9665 42.2164 28.6292 41.5536 28.9606L24.3214 37.5767C23.3273 38.2395 22.0017 36.9139 22.6645 35.9198C24.3214 32.2745 26.3098 27.9665 27.9667 24.984C29.6236 22.0015 31.9434 18.6876 34.2631 15.7051Z" fill="white"/>
<path fill-rule="evenodd" clip-rule="evenodd" d="M33.6001 12.06C33.9315 11.7286 33.9315 11.0658 33.6001 10.7344L28.6293 0.792782C28.2979 0.130005 27.6351 -0.201383 26.9723 0.130005L16.3679 5.43222C16.0365 5.76361 15.7051 6.095 15.7051 6.75778C15.7051 11.3972 15.7051 17.0308 15.0423 21.6703C14.3796 26.9725 12.7226 33.9316 11.3971 38.5711C11.2482 39.038 11.2482 39.038 11.3971 39.5652L12.7226 42.2163C13.054 42.8791 13.7168 43.2105 14.3796 42.8791L16.3679 41.8849C16.762 41.6847 16.9826 41.4641 17.0307 41.2222C19.019 36.2513 22.3329 28.6294 25.6468 23.6586C27.6351 20.0133 30.949 15.3739 33.6001 12.06Z" fill="#FF006C"/>
<path fill-rule="evenodd" clip-rule="evenodd" d="M12.7228 21.0078C12.3914 24.3217 11.3972 27.967 10.7344 31.2808C10.403 32.275 8.7461 32.6064 8.41472 31.6122L0.130005 14.7114C-0.201383 14.0486 0.130005 13.3859 0.792782 13.0545L11.3972 7.75227C12.3914 7.42088 13.3855 8.08366 13.3855 8.74643C13.0542 13.0545 13.0542 17.3625 12.7228 21.0078Z" fill="white"/>
<path d="M65.2621 16.2503C66.2801 16.2503 67.1256 16.4488 67.7986 16.8456C68.4888 17.2425 69.041 17.7602 69.4551 18.3986C69.8692 19.0371 70.1626 19.7618 70.3351 20.5728C70.5077 21.3838 70.5939 22.212 70.5939 23.0575C70.5939 23.903 70.5077 24.7399 70.3351 25.5682C70.1626 26.3792 69.8692 27.1039 69.4551 27.7423C69.041 28.3808 68.4888 28.8984 67.7986 29.2953C67.1256 29.6749 66.2801 29.8647 65.2621 29.8647H61.6126V16.2503H65.2621ZM66.7374 33.2812C67.997 33.2812 69.11 32.9879 70.0763 32.4012C71.0426 31.7973 71.8536 31.0122 72.5093 30.0459C73.1822 29.0796 73.6913 27.9925 74.0364 26.7847C74.3815 25.5595 74.554 24.3172 74.554 23.0575C74.554 21.8152 74.3815 20.5814 74.0364 19.3563C73.6913 18.1312 73.1822 17.0441 72.5093 16.095C71.8536 15.1288 71.034 14.3523 70.0504 13.7656C69.0841 13.1617 67.9798 12.8597 66.7374 12.8597H59.6973C59.2831 12.8597 58.938 12.9373 58.662 13.0926C58.4031 13.2307 58.1961 13.4119 58.0408 13.6362C57.8855 13.8432 57.7819 14.0676 57.7302 14.3091C57.6784 14.5334 57.6525 14.7233 57.6525 14.8786V31.2365C57.6525 31.5989 57.7129 31.9095 57.8337 32.1683C57.9545 32.4271 58.1098 32.6428 58.2996 32.8154C58.5067 32.9707 58.731 33.0914 58.9725 33.1777C59.2141 33.2467 59.4557 33.2812 59.6973 33.2812H66.7374ZM87.9549 26.9141C88.3862 26.9141 88.7141 26.7156 88.9384 26.3188C89.1627 25.9219 89.2749 25.4215 89.2749 24.8176C89.2749 24.1791 89.1455 23.4803 88.8866 22.7211C88.6278 21.9618 88.2223 21.2544 87.6701 20.5987C87.1352 19.943 86.445 19.3994 85.5995 18.968C84.7713 18.5194 83.7791 18.2951 82.623 18.2951C81.4324 18.2951 80.3971 18.5021 79.5171 18.9163C78.637 19.3304 77.9037 19.8912 77.317 20.5987C76.7303 21.2889 76.2903 22.0999 75.997 23.0316C75.7209 23.9462 75.5829 24.9211 75.5829 25.9564C75.5829 26.9917 75.7382 27.9753 76.0488 28.9071C76.3766 29.8216 76.8425 30.6326 77.4464 31.34C78.0676 32.0302 78.8268 32.5824 79.7241 32.9965C80.6214 33.4107 81.6394 33.6177 82.7783 33.6177C83.7791 33.6177 84.6419 33.4711 85.3666 33.1777C86.0913 32.8671 86.6952 32.5134 87.1784 32.1165C87.6615 31.7024 88.0152 31.2969 88.2396 30.9C88.4811 30.4859 88.6019 30.1667 88.6019 29.9424C88.6019 29.718 88.5502 29.5024 88.4466 29.2953C88.3431 29.071 88.2137 28.8725 88.0584 28.7C87.9031 28.5274 87.7219 28.3894 87.5148 28.2859C87.3078 28.1823 87.1007 28.1306 86.8937 28.1306C86.5658 28.1306 86.2725 28.2859 86.0136 28.5965C85.7203 28.9416 85.4528 29.2435 85.2113 29.5024C84.987 29.7439 84.754 29.9424 84.5124 30.0977C84.2709 30.253 84.012 30.3737 83.736 30.46C83.4599 30.529 83.1406 30.5636 82.7783 30.5636C82.1744 30.5636 81.6394 30.46 81.1736 30.253C80.7249 30.0459 80.3453 29.7871 80.0347 29.4765C79.7241 29.1659 79.4912 28.8467 79.3359 28.5188C79.1806 28.1737 79.1029 27.8717 79.1029 27.6129C79.1029 27.4058 79.1461 27.2419 79.2323 27.1211C79.3359 26.9831 79.4825 26.9141 79.6723 26.9141H87.9549ZM82.623 21.3493C83.1924 21.3493 83.6842 21.4442 84.0983 21.634C84.5124 21.8238 84.8489 22.0567 85.1077 22.3328C85.3838 22.5916 85.5823 22.8677 85.703 23.1611C85.8411 23.4544 85.9101 23.7132 85.9101 23.9375C85.9101 24.2654 85.798 24.4293 85.5736 24.4293H79.6723C79.4135 24.4293 79.2841 24.2568 79.2841 23.9117C79.2841 23.6873 79.3531 23.4285 79.4912 23.1352C79.6292 22.8418 79.8276 22.5658 80.0865 22.3069C80.3626 22.0308 80.7077 21.8065 81.1218 21.634C81.5532 21.4442 82.0536 21.3493 82.623 21.3493ZM103.001 28.3894C103.001 27.5784 102.777 26.9313 102.329 26.4482C101.897 25.9478 101.354 25.5509 100.698 25.2576C100.042 24.947 99.3347 24.7054 98.5755 24.5329C97.8163 24.343 97.1088 24.1705 96.4531 24.0152C95.7974 23.8426 95.2453 23.6442 94.7966 23.4199C94.3652 23.1956 94.1495 22.8763 94.1495 22.4622C94.1495 21.9618 94.3739 21.5995 94.8225 21.3751C95.2711 21.1336 95.8319 21.0128 96.5049 21.0128C96.8155 21.0128 97.1261 21.0473 97.4367 21.1163C97.7645 21.1853 98.0665 21.2975 98.3426 21.4528C98.6359 21.5908 98.8947 21.772 99.1191 21.9963C99.3606 22.2207 99.5504 22.4967 99.6885 22.8246C99.7748 23.0662 99.9128 23.2387 100.103 23.3422C100.292 23.4285 100.491 23.4717 100.698 23.4717C100.888 23.4717 101.078 23.4371 101.267 23.3681C101.474 23.2818 101.656 23.1783 101.811 23.0575C101.983 22.9195 102.121 22.7556 102.225 22.5658C102.329 22.3759 102.38 22.1689 102.38 21.9446C102.38 21.5822 102.234 21.194 101.94 20.7798C101.664 20.3485 101.267 19.9516 100.75 19.5892C100.249 19.2269 99.6367 18.9249 98.912 18.6833C98.1873 18.4245 97.3849 18.2951 96.5049 18.2951C95.6421 18.2951 94.857 18.4072 94.1495 18.6316C93.4421 18.8559 92.8295 19.1665 92.3119 19.5633C91.8115 19.9602 91.4232 20.4434 91.1471 21.0128C90.8711 21.5822 90.733 22.2034 90.733 22.8763C90.733 23.7219 90.9487 24.3948 91.3801 24.8952C91.8115 25.3956 92.3464 25.8011 92.9848 26.1117C93.6233 26.4223 94.3221 26.6725 95.0813 26.8623C95.8406 27.0349 96.5394 27.216 97.1778 27.4058C97.8163 27.5784 98.3512 27.7941 98.7826 28.0529C99.214 28.3117 99.4296 28.6741 99.4296 29.14C99.4296 29.4333 99.352 29.6922 99.1967 29.9165C99.0587 30.1235 98.8689 30.3047 98.6273 30.46C98.403 30.5981 98.1441 30.7102 97.8508 30.7965C97.5575 30.8655 97.2641 30.9 96.9708 30.9C96.0735 30.9 95.3488 30.6757 94.7966 30.2271C94.2445 29.7784 93.8217 29.1918 93.5284 28.467C93.4248 28.2082 93.2523 28.0184 93.0107 27.8976C92.7691 27.7768 92.5017 27.7164 92.2083 27.7164C91.777 27.7164 91.3715 27.8372 90.9918 28.0788C90.6295 28.3204 90.4483 28.6396 90.4483 29.0365C90.4483 29.5024 90.5863 30.0114 90.8624 30.5636C91.1558 31.0985 91.5785 31.5902 92.1307 32.0389C92.6829 32.4875 93.3644 32.8671 94.1754 33.1777C94.9864 33.4711 95.9182 33.6177 96.9708 33.6177C97.799 33.6177 98.5755 33.5056 99.3002 33.2812C100.042 33.0569 100.681 32.7291 101.216 32.2977C101.768 31.8491 102.199 31.3055 102.51 30.6671C102.838 30.0114 103.001 29.2522 103.001 28.3894ZM104.506 14.7233C104.506 15.2409 104.687 15.6809 105.05 16.0433C105.429 16.4056 105.869 16.5868 106.37 16.5868C106.887 16.5868 107.327 16.4056 107.69 16.0433C108.069 15.6809 108.259 15.2409 108.259 14.7233C108.259 14.2056 108.069 13.7656 107.69 13.4032C107.327 13.0409 106.887 12.8597 106.37 12.8597C105.869 12.8597 105.429 13.0409 105.05 13.4032C104.687 13.7656 104.506 14.2056 104.506 14.7233ZM108.259 20.521C108.259 20.0034 108.069 19.5633 107.69 19.201C107.327 18.8214 106.887 18.6316 106.37 18.6316C105.869 18.6316 105.429 18.8214 105.05 19.201C104.687 19.5633 104.506 20.0034 104.506 20.521V31.4177C104.506 31.9181 104.687 32.3581 105.05 32.7377C105.412 33.1001 105.852 33.2812 106.37 33.2812C106.887 33.2812 107.327 33.1001 107.69 32.7377C108.069 32.3754 108.259 31.9353 108.259 31.4177V20.521ZM120.708 25.4388C120.708 26.0082 120.605 26.5431 120.398 27.0435C120.208 27.5266 119.941 27.958 119.595 28.3376C119.25 28.7 118.836 28.9933 118.353 29.2176C117.887 29.4247 117.378 29.5282 116.826 29.5282C116.274 29.5282 115.756 29.4333 115.273 29.2435C114.807 29.0537 114.402 28.7863 114.056 28.4412C113.711 28.0788 113.435 27.6474 113.228 27.147C113.038 26.6294 112.944 26.0599 112.944 25.4388C112.944 24.8176 113.038 24.2568 113.228 23.7564C113.435 23.2387 113.711 22.8073 114.056 22.4622C114.402 22.0999 114.807 21.8238 115.273 21.634C115.756 21.4442 116.274 21.3493 116.826 21.3493C117.395 21.3493 117.913 21.47 118.379 21.7116C118.862 21.9359 119.276 22.2379 119.621 22.6175C119.966 22.9971 120.234 23.4371 120.424 23.9375C120.613 24.4207 120.708 24.9211 120.708 25.4388ZM120.527 20.1587C120.441 20.0724 120.294 19.9257 120.087 19.7186C119.88 19.5116 119.613 19.3045 119.285 19.0975C118.974 18.8904 118.586 18.7092 118.12 18.5539C117.654 18.3814 117.119 18.2951 116.515 18.2951C115.497 18.2951 114.557 18.4849 113.694 18.8645C112.849 19.2441 112.124 19.7618 111.52 20.4175C110.916 21.0732 110.442 21.8324 110.096 22.6952C109.769 23.5579 109.605 24.4725 109.605 25.4388C109.605 26.405 109.769 27.3282 110.096 28.2082C110.442 29.071 110.916 29.8302 111.52 30.4859C112.124 31.1416 112.849 31.6593 113.694 32.0389C114.557 32.4185 115.497 32.6083 116.515 32.6083C117.137 32.6083 117.671 32.5565 118.12 32.453C118.569 32.3322 118.948 32.1855 119.259 32.013C119.57 31.8404 119.82 31.6593 120.01 31.4695C120.217 31.2624 120.389 31.064 120.527 30.8741V31.78C120.527 32.2977 120.493 32.7895 120.424 33.2554C120.355 33.7213 120.199 34.1268 119.958 34.4719C119.716 34.8342 119.362 35.1189 118.897 35.326C118.431 35.5503 117.809 35.6625 117.033 35.6625C116.257 35.6625 115.661 35.5503 115.247 35.326C114.85 35.1017 114.522 34.8515 114.264 34.5754C114.005 34.3166 113.763 34.075 113.539 33.8507C113.332 33.6264 113.03 33.5142 112.633 33.5142C112.202 33.5142 111.822 33.6695 111.494 33.9801C111.183 34.3079 111.028 34.7048 111.028 35.1707C111.028 35.5331 111.14 35.8868 111.365 36.2319C111.71 36.7496 112.081 37.1723 112.478 37.5002C112.892 37.828 113.332 38.0782 113.798 38.2508C114.281 38.4406 114.79 38.57 115.325 38.639C115.86 38.708 116.429 38.7425 117.033 38.7425C117.879 38.7425 118.715 38.6217 119.544 38.3802C120.372 38.1559 121.105 37.8107 121.744 37.3449C122.399 36.8962 122.926 36.3268 123.323 35.6366C123.737 34.9636 123.944 34.1785 123.944 33.2812V20.1587C123.944 19.6928 123.771 19.2959 123.426 18.968C123.098 18.6402 122.701 18.4763 122.235 18.4763C121.77 18.4763 121.364 18.6229 121.019 18.9163C120.691 19.1924 120.527 19.6065 120.527 20.1587ZM138.911 22.8763C138.911 22.1861 138.782 21.565 138.523 21.0128C138.281 20.4434 137.936 19.9602 137.488 19.5633C137.056 19.1665 136.547 18.8559 135.961 18.6316C135.374 18.4072 134.753 18.2951 134.097 18.2951C133.51 18.2951 132.984 18.3641 132.518 18.5021C132.052 18.6229 131.638 18.7782 131.276 18.968C130.913 19.1406 130.603 19.339 130.344 19.5633C130.085 19.7877 129.878 19.9861 129.723 20.1587C129.723 19.6583 129.542 19.2269 129.179 18.8645C128.817 18.4849 128.377 18.2951 127.859 18.2951C127.342 18.2951 126.893 18.4849 126.513 18.8645C126.151 19.2269 125.97 19.6583 125.97 20.1587V31.4177C125.97 31.9181 126.151 32.3581 126.513 32.7377C126.893 33.1001 127.342 33.2812 127.859 33.2812C128.377 33.2812 128.817 33.1001 129.179 32.7377C129.542 32.3581 129.723 31.9181 129.723 31.4177V24.1187C129.723 23.7391 129.792 23.3854 129.93 23.0575C130.085 22.7297 130.284 22.445 130.525 22.2034C130.767 21.9618 131.052 21.772 131.379 21.634C131.724 21.4787 132.078 21.401 132.441 21.401C132.82 21.401 133.174 21.4787 133.502 21.634C133.83 21.772 134.114 21.9618 134.356 22.2034C134.597 22.445 134.787 22.7297 134.925 23.0575C135.081 23.3854 135.158 23.7391 135.158 24.1187V31.4177C135.158 31.9181 135.339 32.3581 135.702 32.7377C136.081 33.1001 136.53 33.2812 137.048 33.2812C137.565 33.2812 138.005 33.1001 138.368 32.7377C138.73 32.3581 138.911 31.9181 138.911 31.4177V22.8763Z" fill="#FF006C"/>
<path d="M152.374 19.3822L154.936 31.0553C155.074 31.6938 155.359 32.2287 155.79 32.6601C156.222 33.0742 156.765 33.2812 157.421 33.2812C158.076 33.2812 158.611 33.0656 159.025 32.6342C159.44 32.2028 159.733 31.6765 159.905 31.0553L164.461 14.8527C164.495 14.6801 164.513 14.5507 164.513 14.4644C164.513 14.0503 164.349 13.6793 164.021 13.3515C163.71 13.0236 163.331 12.8597 162.882 12.8597C162.295 12.8597 161.795 13.0322 161.381 13.3773C160.967 13.7052 160.691 14.1538 160.553 14.7233L157.421 27.4835L154.677 14.7233C154.556 14.1538 154.289 13.7052 153.875 13.3773C153.461 13.0322 152.96 12.8597 152.374 12.8597C151.787 12.8597 151.287 13.0322 150.872 13.3773C150.458 13.7052 150.191 14.1538 150.07 14.7233L147.326 27.4835L144.195 14.7233C144.057 14.1538 143.78 13.7052 143.366 13.3773C142.952 13.0322 142.452 12.8597 141.865 12.8597C141.434 12.8597 141.054 13.0236 140.726 13.3515C140.398 13.6793 140.235 14.0589 140.235 14.4903C140.235 14.5593 140.252 14.6801 140.286 14.8527L144.842 31.0553C145.014 31.6765 145.308 32.2028 145.722 32.6342C146.136 33.0656 146.671 33.2812 147.326 33.2812C147.982 33.2812 148.526 33.0742 148.957 32.6601C149.388 32.2287 149.673 31.6938 149.811 31.0553L152.374 19.3822ZM167.849 23.6011C168.298 23.6011 168.643 23.532 168.885 23.394C169.126 23.256 169.316 23.0834 169.454 22.8763C169.609 22.6693 169.739 22.445 169.842 22.2034C169.946 21.9446 170.075 21.7116 170.231 21.5046C170.403 21.2975 170.627 21.1249 170.903 20.9869C171.18 20.8489 171.568 20.7798 172.068 20.7798C172.448 20.7798 172.81 20.8144 173.155 20.8834C173.5 20.9524 173.802 21.0559 174.061 21.194C174.32 21.3148 174.518 21.4787 174.656 21.6857C174.812 21.8755 174.889 22.0999 174.889 22.3587C174.889 22.9109 174.648 23.3164 174.165 23.5752C173.699 23.8168 173.112 24.0066 172.405 24.1446C171.697 24.2827 170.929 24.4207 170.101 24.5587C169.29 24.6968 168.531 24.9211 167.823 25.2317C167.116 25.5423 166.521 25.9995 166.038 26.6035C165.572 27.2074 165.339 28.0443 165.339 29.1141C165.339 29.8043 165.485 30.4083 165.779 30.9259C166.072 31.4436 166.452 31.8836 166.918 32.2459C167.401 32.591 167.936 32.8499 168.522 33.0224C169.126 33.195 169.721 33.2812 170.308 33.2812C171.223 33.2812 172.042 33.1691 172.767 32.9448C173.492 32.7205 174.182 32.2977 174.838 31.6765C174.889 32.1424 175.079 32.5306 175.407 32.8412C175.752 33.1346 176.158 33.2812 176.624 33.2812C177.124 33.2812 177.547 33.1087 177.892 32.7636C178.237 32.4185 178.41 31.9957 178.41 31.4953V22.2552C178.41 21.565 178.254 20.9783 177.944 20.4951C177.65 19.9947 177.228 19.5806 176.675 19.2528C176.14 18.9249 175.502 18.6833 174.76 18.528C174.018 18.3727 173.207 18.2951 172.327 18.2951C171.395 18.2951 170.558 18.39 169.816 18.5798C169.074 18.7696 168.445 19.0371 167.927 19.3822C167.409 19.71 167.012 20.1069 166.736 20.5728C166.46 21.0387 166.322 21.5477 166.322 22.0999C166.322 22.6693 166.469 23.0662 166.762 23.2905C167.073 23.4975 167.435 23.6011 167.849 23.6011ZM174.838 26.0341V28.5447C174.838 28.8898 174.734 29.2004 174.527 29.4765C174.337 29.7353 174.078 29.9596 173.751 30.1494C173.44 30.322 173.078 30.46 172.664 30.5636C172.267 30.6498 171.87 30.693 171.473 30.693C171.007 30.693 170.61 30.6412 170.282 30.5377C169.972 30.4341 169.721 30.2961 169.532 30.1235C169.342 29.9337 169.204 29.7267 169.118 29.5024C169.049 29.278 169.014 29.0451 169.014 28.8035C169.014 27.8372 169.644 27.2419 170.903 27.0176C171.939 26.8278 172.758 26.638 173.362 26.4482C173.984 26.2584 174.475 26.1203 174.838 26.0341ZM184.374 14.7233C184.374 14.2056 184.184 13.7656 183.805 13.4032C183.443 13.0409 183.002 12.8597 182.485 12.8597C181.984 12.8597 181.544 13.0409 181.165 13.4032C180.802 13.7656 180.621 14.2056 180.621 14.7233V31.4177C180.621 31.9181 180.802 32.3581 181.165 32.7377C181.527 33.1001 181.967 33.2812 182.485 33.2812C183.002 33.2812 183.443 33.1001 183.805 32.7377C184.184 32.3754 184.374 31.9353 184.374 31.4177V14.7233ZM188.601 23.6011C189.05 23.6011 189.395 23.532 189.636 23.394C189.878 23.256 190.068 23.0834 190.206 22.8763C190.361 22.6693 190.491 22.445 190.594 22.2034C190.698 21.9446 190.827 21.7116 190.982 21.5046C191.155 21.2975 191.379 21.1249 191.655 20.9869C191.931 20.8489 192.32 20.7798 192.82 20.7798C193.2 20.7798 193.562 20.8144 193.907 20.8834C194.252 20.9524 194.554 21.0559 194.813 21.194C195.072 21.3148 195.27 21.4787 195.408 21.6857C195.564 21.8755 195.641 22.0999 195.641 22.3587C195.641 22.9109 195.4 23.3164 194.916 23.5752C194.451 23.8168 193.864 24.0066 193.156 24.1446C192.449 24.2827 191.681 24.4207 190.853 24.5587C190.042 24.6968 189.283 24.9211 188.575 25.2317C187.868 25.5423 187.272 25.9995 186.789 26.6035C186.323 27.2074 186.09 28.0443 186.09 29.1141C186.09 29.8043 186.237 30.4083 186.53 30.9259C186.824 31.4436 187.203 31.8836 187.669 32.2459C188.152 32.591 188.687 32.8499 189.274 33.0224C189.878 33.195 190.473 33.2812 191.06 33.2812C191.974 33.2812 192.794 33.1691 193.519 32.9448C194.244 32.7205 194.934 32.2977 195.589 31.6765C195.641 32.1424 195.831 32.5306 196.159 32.8412C196.504 33.1346 196.909 33.2812 197.375 33.2812C197.876 33.2812 198.299 33.1087 198.644 32.7636C198.989 32.4185 199.161 31.9957 199.161 31.4953V22.2552C199.161 21.565 199.006 20.9783 198.695 20.4951C198.402 19.9947 197.979 19.5806 197.427 19.2528C196.892 18.9249 196.254 18.6833 195.512 18.528C194.77 18.3727 193.959 18.2951 193.079 18.2951C192.147 18.2951 191.31 18.39 190.568 18.5798C189.826 18.7696 189.196 19.0371 188.679 19.3822C188.161 19.71 187.764 20.1069 187.488 20.5728C187.212 21.0387 187.074 21.5477 187.074 22.0999C187.074 22.6693 187.221 23.0662 187.514 23.2905C187.825 23.4975 188.187 23.6011 188.601 23.6011ZM195.589 26.0341V28.5447C195.589 28.8898 195.486 29.2004 195.279 29.4765C195.089 29.7353 194.83 29.9596 194.502 30.1494C194.192 30.322 193.829 30.46 193.415 30.5636C193.018 30.6498 192.622 30.693 192.225 30.693C191.759 30.693 191.362 30.6412 191.034 30.5377C190.723 30.4341 190.473 30.2961 190.283 30.1235C190.094 29.9337 189.956 29.7267 189.869 29.5024C189.8 29.278 189.766 29.0451 189.766 28.8035C189.766 27.8372 190.396 27.2419 191.655 27.0176C192.691 26.8278 193.51 26.638 194.114 26.4482C194.735 26.2584 195.227 26.1203 195.589 26.0341Z" fill="white"/>
</svg>
